<?xml version="1.0" encoding="UTF-8"?>
<!DOCTYPE svg PUBLIC "-//W3C//DTD SVG 1.1//EN" "http://www.w3.org/Graphics/SVG/1.1/DTD/svg11.dtd">
<svg xmlns="http://www.w3.org/2000/svg" version="1.1" width="512px" height="512px" style="shape-rendering:geometricPrecision; text-rendering:geometricPrecision; image-rendering:optimizeQuality; fill-rule:evenodd; clip-rule:evenodd" xmlns:xlink="http://www.w3.org/1999/xlink">
<g><path style="opacity:0.949" fill="#ff6e2d" d="M 251.5,-0.5 C 254.167,-0.5 256.833,-0.5 259.5,-0.5C 260.801,0.639972 261.968,1.97331 263,3.5C 263.5,30.4979 263.667,57.4979 263.5,84.5C 258.167,85.8333 252.833,85.8333 247.5,84.5C 247.333,57.4979 247.5,30.4979 248,3.5C 249.032,1.97331 250.199,0.639972 251.5,-0.5 Z"/></g>
<g><path style="opacity:0.997" fill="#ff8b2a" d="M 247.5,84.5 C 252.833,85.8333 258.167,85.8333 263.5,84.5C 283.833,84.5 304.167,84.5 324.5,84.5C 386.669,87.1901 432.503,115.857 462,170.5C 471.737,191.78 476.903,214.114 477.5,237.5C 477.167,237.5 476.833,237.5 476.5,237.5C 326.833,237.333 177.166,237.5 27.5,238C 18.3075,240.076 11.6408,245.243 7.5,253.5C 4.08805,247.935 2.42138,241.768 2.5,235C 6.63434,169.581 38.301,123.248 97.5,96C 113.533,89.4921 130.199,85.8255 147.5,85C 180.832,84.5 214.165,84.3333 247.5,84.5 Z"/></g>
<g><path style="opacity:0.977" fill="#ff6e2e" d="M 324.5,84.5 C 349.849,82.956 374.849,85.1227 399.5,91C 455.307,110.089 490.473,148.256 505,205.5C 507.905,219.098 508.571,232.765 507,246.5C 506.33,249.174 505.163,251.507 503.5,253.5C 498.113,243.127 489.446,237.793 477.5,237.5C 476.903,214.114 471.737,191.78 462,170.5C 432.503,115.857 386.669,87.1901 324.5,84.5 Z"/></g>
<g><path style="opacity:1" fill="#ffa625" d="M 151.5,108.5 C 159.123,106.975 162.957,109.975 163,117.5C 159.258,124.648 154.592,125.315 149,119.5C 147.812,115.259 148.645,111.592 151.5,108.5 Z"/></g>
<g><path style="opacity:1" fill="#ffa625" d="M 183.5,138.5 C 194.282,139.684 196.282,144.518 189.5,153C 181.333,154.167 177.833,150.667 179,142.5C 180.397,140.93 181.897,139.596 183.5,138.5 Z"/></g>
<g><path style="opacity:1" fill="#ffa525" d="M 352.5,138.5 C 362.197,138.72 364.864,143.22 360.5,152C 352.048,155.202 347.881,152.368 348,143.5C 349.059,141.341 350.559,139.674 352.5,138.5 Z"/></g>
<g><path style="opacity:0.999" fill="#ffe6ac" d="M 476.5,237.5 C 476.034,253.127 468.367,263.127 453.5,267.5C 453.167,267.5 452.833,267.5 452.5,267.5C 309.833,267.5 167.167,267.5 24.5,267.5C 17.1343,264.973 11.4676,260.306 7.5,253.5C 11.6408,245.243 18.3075,240.076 27.5,238C 177.166,237.5 326.833,237.333 476.5,237.5 Z"/></g>
<g><path style="opacity:0.986" fill="#ffbd9e" d="M 476.5,237.5 C 476.833,237.5 477.167,237.5 477.5,237.5C 489.446,237.793 498.113,243.127 503.5,253.5C 499.532,260.306 493.866,264.973 486.5,267.5C 475.5,267.5 464.5,267.5 453.5,267.5C 468.367,263.127 476.034,253.127 476.5,237.5 Z"/></g>
<g><path style="opacity:1" fill="#fea726" d="M 24.5,267.5 C 167.167,267.5 309.833,267.5 452.5,267.5C 457.316,268.326 462.316,268.826 467.5,269C 479.557,276.737 480.557,285.737 470.5,296C 468.685,296.757 467.019,297.59 465.5,298.5C 458.11,298.236 450.777,298.57 443.5,299.5C 415.878,303.647 391.544,314.813 370.5,333C 351.833,351.667 333.167,370.333 314.5,389C 352.832,389.5 391.165,389.667 429.5,389.5C 390.669,390.333 351.669,390.833 312.5,391C 302.631,400.702 292.964,410.535 283.5,420.5C 264.819,440.498 246.153,440.498 227.5,420.5C 218.036,410.535 208.369,400.702 198.5,391C 148.665,390.833 98.9983,390.333 49.5,389.5C 98.5011,389.667 147.501,389.5 196.5,389C 177.5,370 158.5,351 139.5,332C 110.238,307.969 76.5718,296.802 38.5,298.5C 30.16,298.666 21.8267,298.5 13.5,298C 3.27192,292.952 0.438586,285.118 5,274.5C 10.1202,268.514 16.6202,266.181 24.5,267.5 Z"/></g>
<g><path style="opacity:0.973" fill="#ff8c2b" d="M 452.5,267.5 C 452.833,267.5 453.167,267.5 453.5,267.5C 464.5,267.5 475.5,267.5 486.5,267.5C 499.001,265.568 506.335,270.735 508.5,283C 507.855,290.3 504.188,295.3 497.5,298C 489.173,298.5 480.84,298.666 472.5,298.5C 470.167,298.5 467.833,298.5 465.5,298.5C 467.019,297.59 468.685,296.757 470.5,296C 480.557,285.737 479.557,276.737 467.5,269C 462.316,268.826 457.316,268.326 452.5,267.5 Z"/></g>
<g><path style="opacity:0.998" fill="#cf451b" d="M 38.5,298.5 C 76.5718,296.802 110.238,307.969 139.5,332C 158.5,351 177.5,370 196.5,389C 147.501,389.5 98.5011,389.667 49.5,389.5C 45.8333,389.5 42.1667,389.5 38.5,389.5C 8.67746,378.526 -2.15587,357.526 6,326.5C 12.4307,311.892 23.264,302.559 38.5,298.5 Z"/></g>
<g><path style="opacity:0.989" fill="#9e3802" d="M 465.5,298.5 C 467.833,298.5 470.167,298.5 472.5,298.5C 502.322,309.472 513.155,330.472 505,361.5C 498.569,376.108 487.736,385.441 472.5,389.5C 470.167,389.5 467.833,389.5 465.5,389.5C 456.167,389.5 446.833,389.5 437.5,389.5C 467.188,382.174 480.022,363.174 476,332.5C 470.984,315.651 460.15,304.651 443.5,299.5C 450.777,298.57 458.11,298.236 465.5,298.5 Z"/></g>
<g><path style="opacity:1" fill="#cf451a" d="M 443.5,299.5 C 460.15,304.651 470.984,315.651 476,332.5C 480.022,363.174 467.188,382.174 437.5,389.5C 434.833,389.5 432.167,389.5 429.5,389.5C 391.165,389.667 352.832,389.5 314.5,389C 333.167,370.333 351.833,351.667 370.5,333C 391.544,314.813 415.878,303.647 443.5,299.5 Z"/></g>
<g><path style="opacity:0.995" fill="#ffbe47" d="M 38.5,389.5 C 42.1667,389.5 45.8333,389.5 49.5,389.5C 98.9983,390.333 148.665,390.833 198.5,391C 208.369,400.702 218.036,410.535 227.5,420.5C 159.833,420.5 92.1667,420.5 24.5,420.5C 12.0257,422.442 4.69236,417.275 2.5,405C 3.08072,397.751 6.74739,392.751 13.5,390C 21.8267,389.5 30.16,389.334 38.5,389.5 Z"/></g>
<g><path style="opacity:0.984" fill="#ffa725" d="M 465.5,389.5 C 467.833,389.5 470.167,389.5 472.5,389.5C 480.84,389.334 489.173,389.5 497.5,390C 507.743,395.134 510.577,402.968 506,413.5C 501.001,419.86 494.501,422.193 486.5,420.5C 483.167,420.5 479.833,420.5 476.5,420.5C 473.695,419.681 470.695,419.181 467.5,419C 477.744,413.357 479.911,405.523 474,395.5C 471.329,393.098 468.495,391.098 465.5,389.5 Z"/></g>
<g><path style="opacity:1" fill="#febe47" d="M 429.5,389.5 C 432.167,389.5 434.833,389.5 437.5,389.5C 446.833,389.5 456.167,389.5 465.5,389.5C 468.495,391.098 471.329,393.098 474,395.5C 479.911,405.523 477.744,413.357 467.5,419C 470.695,419.181 473.695,419.681 476.5,420.5C 469.167,420.5 461.833,420.5 454.5,420.5C 397.5,420.5 340.5,420.5 283.5,420.5C 292.964,410.535 302.631,400.702 312.5,391C 351.669,390.833 390.669,390.333 429.5,389.5 Z"/></g>
<g><path style="opacity:0.999" fill="#ffe6ac" d="M 24.5,420.5 C 92.1667,420.5 159.833,420.5 227.5,420.5C 246.153,440.498 264.819,440.498 283.5,420.5C 340.5,420.5 397.5,420.5 454.5,420.5C 468.404,425.612 476.071,435.612 477.5,450.5C 327.166,450.667 176.833,450.5 26.5,450C 18.1686,447.346 11.502,442.513 6.5,435.5C 10.7217,428.271 16.7217,423.271 24.5,420.5 Z"/></g>
<g><path style="opacity:0.987" fill="#ffbd9e" d="M 454.5,420.5 C 461.833,420.5 469.167,420.5 476.5,420.5C 479.833,420.5 483.167,420.5 486.5,420.5C 494.278,423.271 500.278,428.271 504.5,435.5C 498.028,444.906 489.028,449.906 477.5,450.5C 476.071,435.612 468.404,425.612 454.5,420.5 Z"/></g>
<g><path style="opacity:0.999" fill="#ff8b2a" d="M 6.5,435.5 C 11.502,442.513 18.1686,447.346 26.5,450C 176.833,450.5 327.166,450.667 477.5,450.5C 475.729,478.227 462.062,497.394 436.5,508C 432.152,509.583 427.818,510.749 423.5,511.5C 300.167,511.5 176.833,511.5 53.5,511.5C 22.202,503.855 5.20204,483.855 2.5,451.5C 2.77086,445.852 4.10419,440.519 6.5,435.5 Z"/></g>
<g><path style="opacity:0.979" fill="#ff6e2e" d="M 504.5,435.5 C 511.903,462.123 504.57,483.957 482.5,501C 474.671,505.99 466.338,509.49 457.5,511.5C 446.167,511.5 434.833,511.5 423.5,511.5C 427.818,510.749 432.152,509.583 436.5,508C 462.062,497.394 475.729,478.227 477.5,450.5C 489.028,449.906 498.028,444.906 504.5,435.5 Z"/></g>
</svg>
