<?xml version="1.0" encoding="UTF-8" standalone="no"?>
<!DOCTYPE svg PUBLIC "-//W3C//DTD SVG 1.1//EN" "http://www.w3.org/Graphics/SVG/1.1/DTD/svg11.dtd">
<svg width="100%" height="100%" viewBox="0 0 1991 1991" version="1.1" xmlns="http://www.w3.org/2000/svg" xmlns:xlink="http://www.w3.org/1999/xlink" xml:space="preserve" xmlns:serif="http://www.serif.com/" style="fill-rule:evenodd;clip-rule:evenodd;stroke-linejoin:round;stroke-miterlimit:2;">
    <g transform="matrix(1.3333,0,0,1.3333,0,0)">
        <g>
            <g>
                <clipPath id="_clip1">
                    <rect x="0" y="-0.297" width="1494" height="1494"/>
                </clipPath>
                <g clip-path="url(#_clip1)">
                    <g transform="matrix(1,0,0,-1,0,1493)">
                        <path d="M1493.25,746.603C1493.25,1158.94 1158.94,1493.3 746.551,1493.3C334.262,1493.3 0,1158.94 0,746.603C0,334.266 334.262,0 746.551,0C1158.94,0 1493.25,334.266 1493.25,746.603" style="fill:rgb(244,0,9);fill-rule:nonzero;"/>
                    </g>
                    <g transform="matrix(1,0,0,-1,0,1493)">
                        <path d="M662.988,547.41C630.887,570.04 591.781,580.027 556.223,578.47C520.285,577.095 504.141,550.345 504.141,550.345C487.949,578.47 455.941,595.939 406.371,595.466C326.406,594.47 247.102,557.54 184.227,557.54C123.859,557.54 79.871,595.466 81.34,662.79C83.898,780.732 183.563,887.021 258.086,934.985C300.883,962.492 336.773,970.684 360.258,967.985C377.348,966.043 397.898,946.302 384.973,917.275C365.938,874.478 339.566,878.168 340.516,898.482C341.082,911.782 349.887,920.071 356.516,924.66C360.777,927.598 368.211,928.353 372,928.449C375.789,931.621 378.676,955.059 347.996,947.293C317.313,939.527 280.336,909.513 245.16,870.591C209.934,831.723 155.105,758.052 141.613,680.876C135.316,644.988 139.531,579.65 224.422,580.407C296.387,581.025 402.582,628.418 500.117,627.66C538.043,627.329 570.996,617.103 596.703,601.193C621.988,585.571 652.289,562.891 662.988,547.41M686.094,761.363L700.816,761.363C700.816,761.363 626.957,654.504 585.105,659.285C561.809,661.939 568.723,690.867 568.723,690.867C568.723,690.867 535.863,652.423 505.895,660.091C478.621,667.146 496.188,712.552 496.188,712.552C493.109,711.181 434.023,644.61 392.547,660.568C349.227,677.232 371.668,733.004 379.953,749.86C386.914,763.923 394.68,777.652 394.68,777.652C394.68,777.652 387.957,775.759 383.883,774.86C379.715,773.863 373.418,772.681 373.418,772.681C373.418,772.681 352.918,739.302 340.324,722.587C327.824,706.064 274.465,648.638 243.074,660.091C211.637,671.504 219.402,715.439 237.109,750.379C265.707,807.15 333.602,876.652 374.508,866.332C415.84,855.775 381.66,788.684 381.66,788.684C381.66,788.684 389.848,787.548 409.543,801.138C437.953,820.454 475.355,872.485 515.934,866.427C534.914,863.587 552.719,843.985 528.477,806.957C520.715,795.027 507.691,784.329 497.656,794.934C491.453,801.324 496.852,813.306 503.383,821.446C512.57,833.048 525.258,831.532 525.258,831.532C525.258,831.532 531.98,846.871 514.984,846.634C501.16,846.4 466.313,814.157 446.57,781.629C428.484,751.896 401.117,700.996 428.625,689.918C453.813,679.738 501.773,736.742 524.027,766.571C546.234,796.4 596.801,864.204 639.219,866.853C653.805,867.896 662.563,854.591 662.563,854.591L667.484,862.357L709.863,862.357C709.863,862.357 629.941,728.742 623.691,718.613C618.766,710.704 612.281,692.902 630.32,702.891C648.453,712.931 686.094,761.363 686.094,761.363M356.898,774.86C356.184,775.193 345.484,778.173 335.117,784.946C324.699,791.525 319.871,801.418 319.492,802.129C319.113,802.888 318.641,802.271 318.262,801.704C317.836,801.184 315.609,798.251 300.461,776.043C285.309,753.884 262.961,708.384 283.984,700.617C297.383,695.556 319.965,719.228 332.227,734.853C343.543,749.337 357.039,771.689 357.652,772.966C358.176,774.29 357.652,774.621 356.898,774.86M373.703,845.879C362.578,854.357 334.266,834.704 334.172,814.535C333.98,793.845 359.688,787.973 363.004,787.832C363.004,787.832 365.938,787.121 367.074,789.488C367.785,791.052 371.289,797.488 375.219,807.673C379.102,817.992 384.074,838.021 373.703,845.879M589.887,734.707C607.023,758.193 654.23,840.527 654.23,840.527C654.23,840.527 653.473,846.306 647.98,846.591C641.398,846.824 630.605,844.693 608.871,817.47C587.141,790.341 570.426,768.704 558.164,746.263C544.719,721.782 538.848,704.548 546.563,699.72C548.695,698.488 552.008,698.348 554.66,698.915C559.68,700.242 566.258,705.216 575.301,715.677C579.516,720.509 584.25,726.946 589.887,734.707M780.5,862.212L740.258,862.212L717.531,825.282L757.777,825.282L780.5,862.212ZM1375.17,928.306C1345.48,909.134 1304.15,891.853 1264.52,895.684C1254.48,885.223 1243.79,873.242 1232.94,860.177C1301.78,846.591 1361.91,889.152 1393.96,925.516C1413.94,948.146 1423.75,968.41 1423.75,968.41C1423.75,968.41 1404.67,947.293 1375.17,928.306M1257.37,615.871C1251.59,606.782 1245.16,589.31 1264,600.15C1286.91,613.552 1319.59,663.074 1319.59,663.074L1334.31,663.074C1334.31,663.074 1314.9,632.204 1289.52,604.082C1266.23,578.418 1237.91,554.891 1217.93,557.207C1194.59,559.954 1201.88,590.587 1201.88,590.587C1201.88,590.587 1168.41,555.032 1145.35,557.54C1114.24,560.949 1123.71,599.629 1123.71,599.629C1123.71,599.629 1088.44,556.263 1064.44,557.54C1026.75,559.72 1036.17,605.832 1046.68,637.888C1052.32,655.216 1057.48,668.759 1057.48,668.759C1057.48,668.759 1053.73,667.716 1045.73,666.626C1041.52,665.962 1033.85,665.488 1033.85,665.488C1033.85,665.488 1018.18,637.79 1005.68,621.22C993.086,604.462 939.82,547.126 908.383,558.677C879.359,569.189 888.922,613.738 905.828,649.013C930.445,700.478 999.762,774.482 1039.82,764.821C1081.24,754.689 1040.76,679.032 1040.76,679.032C1040.76,679.032 1040.76,678.841 1041.19,678.699C1042.09,678.321 1044.17,678.082 1049.19,679.032C1057.19,680.591 1064.34,683.574 1064.34,683.574C1064.34,683.574 1106.01,770.832 1152.03,828.027C1198.09,885.129 1289.9,983.512 1325.98,959.746C1334.83,953.923 1330.81,933.754 1318.92,909.321C1313.76,907.712 1308.27,906.103 1302.68,905.016C1310.59,919.501 1315.89,931.527 1317.45,940.052C1322.8,969.543 1253.96,907.427 1204.72,840.482C1155.58,773.485 1126.04,712.785 1126.04,712.785C1126.04,712.785 1135.98,718.47 1151.46,730.871C1167.6,743.943 1189.76,764.302 1213.96,789.348C1230.19,806.013 1249.28,827.129 1267.17,850.707C1272.48,850.988 1277.68,851.513 1282.8,852.41C1262.91,825.473 1241.89,801.04 1224.09,782.957C1204.58,763.071 1183.27,741.763 1164.77,726.189C1135.36,701.423 1112.68,687.363 1112.68,687.363C1112.68,687.363 1069.55,600.626 1092.94,594.992C1106.77,591.771 1133.94,633.626 1133.94,633.626C1133.94,633.626 1169.4,687.79 1190.76,712.22C1219.97,745.36 1245.06,764.488 1270.16,764.915C1284.79,765.246 1293.36,749.673 1293.36,749.673L1300.27,760.228L1342.74,760.228C1342.74,760.228 1263.67,626.004 1257.37,615.871M1019.12,668.806C1018.32,669.091 1009.18,673.207 999.668,681.113C990.148,689.113 985.273,698.254 984.988,698.867C984.609,699.579 984.184,699.06 983.758,698.488C983.285,697.876 981.578,696.501 966.43,674.152C951.371,651.949 928.176,606.117 949.242,598.353C962.594,593.384 985.086,616.91 997.254,632.535C1008.62,647.168 1019.17,665.488 1019.79,666.91C1020.4,668.141 1019.84,668.568 1019.12,668.806M1040.48,706.302C1044.41,716.482 1049.38,736.509 1038.96,744.367C1027.88,752.798 999.574,733.103 999.383,713.025C999.238,692.431 1019.41,683.056 1024.24,681.824C1026.98,681.068 1027.88,681.113 1029.31,683.341C1030.16,684.902 1036.55,695.982 1040.48,706.302M1283.84,734.568C1284.69,736.129 1285.07,737.457 1285.07,737.457C1285.07,737.457 1284.27,743.232 1278.77,743.516C1272.24,743.848 1263.29,742.473 1239.9,716.574C1216.56,690.821 1202.4,668.329 1190.14,645.888C1176.69,621.41 1171.34,603.134 1179.06,598.446C1181.24,597.168 1184.56,596.978 1187.16,597.689C1192.37,598.876 1198.29,603.798 1207.33,614.168C1211.54,618.996 1216.23,625.907 1221.77,633.626C1237.2,654.79 1276.07,721.168 1283.84,734.568M1375.17,928.306C1345.48,909.134 1304.15,891.853 1264.52,895.684C1254.48,885.223 1243.79,873.242 1232.94,860.177C1301.78,846.591 1361.91,889.152 1393.96,925.516C1413.94,948.146 1423.75,968.41 1423.75,968.41C1423.75,968.41 1404.67,947.293 1375.17,928.306M1181.95,878.402C1149.47,895.117 1125.75,915.525 1100.94,928.165C1077.32,940.29 1062.12,945.306 1043.04,942.793C1039.86,942.371 1035.13,940.902 1035.13,940.902C1035.13,940.902 1045.03,907.332 1005.92,850.848C966.336,793.704 930.445,793.988 920.219,809.848C909.52,826.466 923.297,860.271 946.402,890.196C970.5,921.681 1012.92,947.818 1012.92,947.818C1012.92,947.818 999.383,956.052 966.145,937.302C933.762,918.888 877.941,875.232 826.238,801.516C774.582,727.985 764.309,687.363 756.828,655.501C749.348,623.685 756.211,589.449 791.578,589.449C827.043,589.449 868.137,643.473 879.738,662.173C901.234,697.165 915.297,750.712 885.988,743.324C871.5,739.775 859.758,723.629 852.375,708.29C844.797,692.431 841.766,677.232 841.766,677.232C841.766,677.232 829.551,672.923 813.074,660.568C796.691,648.302 785.992,636.513 785.992,636.513C785.992,636.513 786.039,661.939 806.352,703.271C826.711,744.509 864.02,763.446 885.09,765.199C904.168,766.716 928.93,750.571 907.957,690.867C886.938,631.259 825.102,558.771 760,557.871C700.012,556.923 660.668,633.626 744.141,767.473C836.465,915.332 945.074,960.738 980.352,965.712C1015.57,970.918 1026.98,955.293 1026.98,955.293C1026.98,955.293 1056.48,968.978 1093.93,966.47C1137.02,963.485 1170.3,933.138 1214.14,911.782C1202.69,900.61 1191.8,889.152 1181.95,878.402M1021.78,936.454C1021.78,936.454 996.59,926.321 967.328,894.121C937.973,861.738 921.023,825.568 933.664,815.954C938.496,812.263 949.621,811.646 969.98,829.923C985.797,844.173 1001.84,862.735 1012.88,889.485C1025.9,921.443 1021.78,936.025 1021.78,936.454" style="fill-rule:nonzero;"/>
                    </g>
                </g>
            </g>
        </g>
        <g id="path30" transform="matrix(2.88172,0,0,2.88172,-327.022,-897.769)">
            <path d="M258.586,681.372C258.586,681.372 227.304,731.424 225.602,734.264C224.206,736.556 224.206,736.556 226.99,736.556L289.866,736.556L289.866,718.729L257.837,718.729C257.837,718.729 289.211,668.462 290.921,665.645C292.337,663.331 292.337,663.331 289.536,663.331L229.255,663.331L229.255,681.372L258.586,681.372Z"/>
        </g>
        <g id="path32" transform="matrix(2.88172,0,0,2.88172,-327.022,-897.769)">
            <path d="M439.977,699.986C439.977,677.727 456.982,661.492 480.32,661.492C503.65,661.492 520.626,677.727 520.626,699.986C520.626,722.215 503.65,738.424 480.32,738.424C456.982,738.424 439.977,722.215 439.977,699.986ZM480.32,720.125C491.287,720.125 498.646,712.217 498.646,699.986C498.646,687.752 491.287,679.8 480.32,679.8C469.319,679.8 461.967,687.752 461.967,699.986C461.967,712.217 469.319,720.125 480.32,720.125Z"/>
        </g>
        <g id="path34" transform="matrix(2.88172,0,0,2.88172,-327.022,-897.769)">
            <path d="M429.944,661.53C415.705,661.53 409.269,674.539 409.269,674.539L409.269,663.247L387.641,663.247L387.641,736.556L409.269,736.556L409.269,700.372C409.269,685.772 416.907,681.917 429.66,681.917C431.01,681.917 435.521,682.474 435.521,682.474L435.521,662.082C433.94,661.75 432.089,661.53 429.944,661.53Z"/>
        </g>
        <g id="path36" transform="matrix(2.88172,0,0,2.88172,-327.022,-897.769)">
            <path d="M376.981,706.892L320.974,706.892C320.974,711.35 328.231,720.532 342.775,720.532C357.221,720.532 365.949,712.644 365.949,712.644L365.949,732.282C365.949,732.282 358.257,738.424 342.775,738.424C319.004,738.424 298.635,724.867 298.635,700.77C298.635,675.315 318.689,661.621 337.515,661.621C361.309,661.621 377.192,679.744 377.192,700.512C377.192,703.639 376.981,706.892 376.981,706.892ZM354.65,692.356C354.65,692.356 352.626,679.486 337.489,679.486C324.172,679.486 320.974,692.356 320.974,692.356L354.65,692.356Z"/>
        </g>
        <g id="path40" transform="matrix(2.88172,0,0,2.88172,-327.022,-897.769)">
            <path d="M521.116,662.659L527.291,662.659L527.291,664.202L524.975,664.202L524.975,672.694L523.175,672.694L523.175,664.202L521.116,664.202L521.116,662.659Z"/>
        </g>
        <g id="path42" transform="matrix(2.88172,0,0,2.88172,-327.022,-897.769)">
            <path d="M530.122,672.694L528.321,672.694L528.321,662.659L531.151,662.659L532.18,667.29C532.437,668.062 532.437,668.834 532.695,669.606C532.695,668.577 532.695,667.805 532.952,667.29L533.981,662.659L536.812,662.659L536.812,672.694L535.011,672.694L535.011,669.349C535.011,667.547 535.011,665.489 535.269,663.43L535.011,663.43L533.21,672.694L531.924,672.694L530.122,663.43L530.122,672.694Z"/>
        </g>
    </g>
</svg>
