<?xml version="1.0" encoding="UTF-8"?>
<!DOCTYPE svg PUBLIC "-//W3C//DTD SVG 1.1//EN" "http://www.w3.org/Graphics/SVG/1.1/DTD/svg11.dtd">
<svg xmlns="http://www.w3.org/2000/svg" version="1.1" width="512px" height="512px" style="shape-rendering:geometricPrecision; text-rendering:geometricPrecision; image-rendering:optimizeQuality; fill-rule:evenodd; clip-rule:evenodd" xmlns:xlink="http://www.w3.org/1999/xlink">
<g><path style="opacity:0.986" fill="#ffc263" d="M 121.5,-0.5 C 125.5,-0.5 129.5,-0.5 133.5,-0.5C 166.942,14.2675 200.609,28.7675 234.5,43C 246.755,48.254 255.255,57.0873 260,69.5C 262.527,84.4112 264.361,99.4112 265.5,114.5C 259.833,114.5 254.167,114.5 248.5,114.5C 247.527,101.436 246.027,88.4357 244,75.5C 242.292,70.5879 239.458,66.4212 235.5,63C 194.738,44.619 153.738,26.7857 112.5,9.5C 114.112,4.88948 117.112,1.55615 121.5,-0.5 Z"/></g>
<g><path style="opacity:0.981" fill="#feda78" d="M 112.5,9.5 C 153.738,26.7857 194.738,44.619 235.5,63C 239.458,66.4212 242.292,70.5879 244,75.5C 246.027,88.4357 247.527,101.436 248.5,114.5C 254.167,114.5 259.833,114.5 265.5,114.5C 265.5,114.833 265.5,115.167 265.5,115.5C 254.5,115.5 243.5,115.5 232.5,115.5C 231.833,115.5 231.5,115.167 231.5,114.5C 230.225,103.86 229.059,93.1934 228,82.5C 227.55,80.481 226.717,78.6477 225.5,77C 189.5,61.3333 153.5,45.6667 117.5,30C 110.927,24.1584 109.261,17.3251 112.5,9.5 Z"/></g>
<g><path style="opacity:0.991" fill="#dff3f9" d="M 231.5,114.5 C 231.5,115.167 231.833,115.5 232.5,115.5C 235.365,144.48 238.031,173.48 240.5,202.5C 231.794,198.152 222.794,194.318 213.5,191C 194.979,186.771 177.979,190.104 162.5,201C 150.147,205.501 137.481,206.668 124.5,204.5C 122.584,176.507 121.084,148.507 120,120.5C 120.785,118.714 121.951,117.214 123.5,116C 159.414,114.513 195.414,114.013 231.5,114.5 Z"/></g>
<g><path style="opacity:0.992" fill="#dff3f9" d="M 265.5,114.5 C 296.167,114.5 326.833,114.5 357.5,114.5C 355.336,142.462 353.669,170.462 352.5,198.5C 352.167,198.5 351.833,198.5 351.5,198.5C 338.678,190.709 324.678,187.876 309.5,190C 299.713,192.892 290.379,196.892 281.5,202C 279.26,202.977 276.927,203.477 274.5,203.5C 271.499,174.161 268.499,144.828 265.5,115.5C 265.5,115.167 265.5,114.833 265.5,114.5 Z"/></g>
<g><path style="opacity:0.994" fill="#cbeef8" d="M 357.5,114.5 C 369.838,114.333 382.171,114.5 394.5,115C 398.606,116.797 400.606,119.963 400.5,124.5C 398.418,151.14 396.752,177.806 395.5,204.5C 380.383,207.437 366.05,205.437 352.5,198.5C 353.669,170.462 355.336,142.462 357.5,114.5 Z"/></g>
<g><path style="opacity:1" fill="#cbeff8" d="M 232.5,115.5 C 243.5,115.5 254.5,115.5 265.5,115.5C 268.499,144.828 271.499,174.161 274.5,203.5C 269.767,205.046 264.767,205.713 259.5,205.5C 255.833,205.333 252.167,205.167 248.5,205C 245.543,204.721 242.877,203.887 240.5,202.5C 238.031,173.48 235.365,144.48 232.5,115.5 Z"/></g>
<g><path style="opacity:0.999" fill="#fec263" d="M 240.5,202.5 C 242.877,203.887 245.543,204.721 248.5,205C 252.167,205.167 255.833,205.333 259.5,205.5C 264.767,205.713 269.767,205.046 274.5,203.5C 276.927,203.477 279.26,202.977 281.5,202C 290.379,196.892 299.713,192.892 309.5,190C 324.678,187.876 338.678,190.709 351.5,198.5C 346.166,290.505 340.666,382.505 335,474.5C 332.667,484.165 326.834,490.665 317.5,494C 259.491,493.836 201.825,494.67 144.5,496.5C 142.982,492.434 142.149,488.101 142,483.5C 136.208,390.491 130.374,297.491 124.5,204.5C 137.481,206.668 150.147,205.501 162.5,201C 177.979,190.104 194.979,186.771 213.5,191C 222.794,194.318 231.794,198.152 240.5,202.5 Z"/></g>
<g><path style="opacity:0.993" fill="#fea95b" d="M 351.5,198.5 C 351.833,198.5 352.167,198.5 352.5,198.5C 366.05,205.437 380.383,207.437 395.5,204.5C 389.293,300.146 383.126,395.813 377,491.5C 374.485,501.176 368.651,507.842 359.5,511.5C 293.167,511.5 226.833,511.5 160.5,511.5C 153.014,508.764 147.681,503.764 144.5,496.5C 201.825,494.67 259.491,493.836 317.5,494C 326.834,490.665 332.667,484.165 335,474.5C 340.666,382.505 346.166,290.505 351.5,198.5 Z"/></g>
<g><path style="opacity:1" fill="#ffd977" d="M 306.5,202.5 C 311.777,201.931 316.777,202.765 321.5,205C 328.407,211.236 334.573,218.069 340,225.5C 341.041,230.44 340.374,235.106 338,239.5C 331.764,246.407 324.931,252.573 317.5,258C 311.696,259.224 306.362,258.224 301.5,255C 294.846,249.357 289.346,242.857 285,235.5C 284.133,231.044 284.466,226.711 286,222.5C 292.066,214.932 298.9,208.266 306.5,202.5 Z"/></g>
<g><path style="opacity:1" fill="#ffd977" d="M 219.5,233.5 C 225.105,232.908 230.439,233.741 235.5,236C 242.328,240.915 249.328,245.581 256.5,250C 264.4,257.141 265.566,265.308 260,274.5C 255,281.833 250,289.167 245,296.5C 237.013,302.903 228.846,303.07 220.5,297C 214.844,292.504 208.844,288.504 202.5,285C 195.567,278.791 193.733,271.291 197,262.5C 202.667,254.167 208.333,245.833 214,237.5C 216.015,236.303 217.849,234.97 219.5,233.5 Z"/></g>
<g><path style="opacity:1" fill="#ffd977" d="M 300.5,294.5 C 305.742,294.023 310.742,294.856 315.5,297C 332.085,308.907 332.752,321.574 317.5,335C 309.803,340.923 302.136,340.923 294.5,335C 289.854,331.358 286.354,326.858 284,321.5C 282.959,316.56 283.626,311.894 286,307.5C 290.432,302.56 295.265,298.227 300.5,294.5 Z"/></g>
</svg>
