<?xml version="1.0" encoding="UTF-8"?>
<!DOCTYPE svg PUBLIC "-//W3C//DTD SVG 1.1//EN" "http://www.w3.org/Graphics/SVG/1.1/DTD/svg11.dtd">
<svg xmlns="http://www.w3.org/2000/svg" version="1.1" width="512px" height="512px" style="shape-rendering:geometricPrecision; text-rendering:geometricPrecision; image-rendering:optimizeQuality; fill-rule:evenodd; clip-rule:evenodd" xmlns:xlink="http://www.w3.org/1999/xlink">
<g><path style="opacity:0.978" fill="#010000" d="M 351.5,-0.5 C 354.5,-0.5 357.5,-0.5 360.5,-0.5C 361.836,1.01027 363.003,2.67694 364,4.5C 366.803,13.2416 369.803,21.9083 373,30.5C 374.262,34.9094 373.428,38.7428 370.5,42C 340.059,53.2023 309.393,63.7023 278.5,73.5C 278.5,93.8333 278.5,114.167 278.5,134.5C 308.835,134.333 339.168,134.5 369.5,135C 371,135.833 372.167,137 373,138.5C 377.611,152.165 382.111,165.832 386.5,179.5C 391.844,179.334 397.177,179.501 402.5,180C 416.886,185.946 421.72,196.446 417,211.5C 410.77,222.645 401.27,226.979 388.5,224.5C 378.401,318.494 368.234,412.494 358,506.5C 357.303,508.584 356.136,510.251 354.5,511.5C 288.5,511.5 222.5,511.5 156.5,511.5C 153.078,508.386 151.578,504.386 152,499.5C 142.297,407.804 132.464,316.138 122.5,224.5C 100.665,226.165 90.8312,216.165 93,194.5C 99.4337,181.392 109.934,176.392 124.5,179.5C 128.889,165.832 133.389,152.165 138,138.5C 138.833,137 140,135.833 141.5,135C 171.832,134.5 202.165,134.333 232.5,134.5C 232.333,110.164 232.5,85.8311 233,61.5C 236.047,46.8778 244.547,37.0445 258.5,32C 289.786,21.6287 320.786,10.7953 351.5,-0.5 Z"/></g>
<g><path style="opacity:1" fill="#52d2f8" d="M 334.5,38.5 C 333.991,33.297 332.324,28.6303 329.5,24.5C 336.401,21.8618 343.401,19.1951 350.5,16.5C 351.086,16.7093 351.586,17.0426 352,17.5C 353.802,22.0952 355.302,26.7619 356.5,31.5C 348.901,33.0331 341.568,35.3665 334.5,38.5 Z"/></g>
<g><path style="opacity:1" fill="#87dcf5" d="M 329.5,24.5 C 332.324,28.6303 333.991,33.297 334.5,38.5C 311.744,46.0298 289.078,53.8631 266.5,62C 265.667,62.8333 264.833,63.6667 264,64.5C 263.5,87.831 263.333,111.164 263.5,134.5C 258.167,134.5 252.833,134.5 247.5,134.5C 247.333,111.164 247.5,87.831 248,64.5C 250.123,56.4192 254.957,50.5858 262.5,47C 284.757,39.1921 307.091,31.6921 329.5,24.5 Z"/></g>
<g><path style="opacity:1" fill="#fef09f" d="M 336.5,149.5 C 340.031,159.426 343.364,169.426 346.5,179.5C 283.832,179.333 221.166,179.5 158.5,180C 156.536,181.451 155.203,183.284 154.5,185.5C 151.938,186.722 149.105,187.389 146,187.5C 143.31,187.497 140.81,187.164 138.5,186.5C 141.895,174.314 145.895,162.314 150.5,150.5C 212.496,149.5 274.496,149.167 336.5,149.5 Z"/></g>
<g><path style="opacity:1" fill="#fce040" d="M 336.5,149.5 C 344.528,149.169 352.528,149.502 360.5,150.5C 364.03,159.757 367.364,169.091 370.5,178.5C 362.528,179.498 354.528,179.831 346.5,179.5C 343.364,169.426 340.031,159.426 336.5,149.5 Z"/></g>
<g><path style="opacity:1" fill="#fef8d5" d="M 154.5,185.5 C 153.822,189.273 155.156,192.106 158.5,194C 232.166,194.5 305.833,194.667 379.5,194.5C 380.769,199.486 380.769,204.486 379.5,209.5C 290.166,209.667 200.833,209.5 111.5,209C 106.257,204.255 106.257,199.588 111.5,195C 118.5,194.667 125.5,194.333 132.5,194C 135.59,192.293 137.59,189.793 138.5,186.5C 140.81,187.164 143.31,187.497 146,187.5C 149.105,187.389 151.938,186.722 154.5,185.5 Z"/></g>
<g><path style="opacity:1" fill="#fcee9f" d="M 379.5,194.5 C 385.842,194.334 392.175,194.5 398.5,195C 403.626,197.553 404.793,201.386 402,206.5C 401.097,207.701 399.931,208.535 398.5,209C 392.175,209.5 385.842,209.666 379.5,209.5C 380.769,204.486 380.769,199.486 379.5,194.5 Z"/></g>
<g><path style="opacity:1" fill="#fe6b49" d="M 349.5,224.5 C 340.346,315.191 331.013,405.858 321.5,496.5C 269.833,496.5 218.167,496.5 166.5,496.5C 157.824,405.766 148.49,315.099 138.5,224.5C 208.833,224.5 279.167,224.5 349.5,224.5 Z"/></g>
<g><path style="opacity:1" fill="#d74a40" d="M 349.5,224.5 C 357.167,224.5 364.833,224.5 372.5,224.5C 362.51,315.1 353.176,405.766 344.5,496.5C 336.833,496.5 329.167,496.5 321.5,496.5C 331.013,405.858 340.346,315.191 349.5,224.5 Z"/></g>
</svg>
