<?xml version="1.0" encoding="UTF-8"?>
<!DOCTYPE svg PUBLIC "-//W3C//DTD SVG 1.1//EN" "http://www.w3.org/Graphics/SVG/1.1/DTD/svg11.dtd">
<svg xmlns="http://www.w3.org/2000/svg" version="1.1" width="512px" height="512px" style="shape-rendering:geometricPrecision; text-rendering:geometricPrecision; image-rendering:optimizeQuality; fill-rule:evenodd; clip-rule:evenodd" xmlns:xlink="http://www.w3.org/1999/xlink">
<g><path style="opacity:0.998" fill="#ffce5c" d="M 233.5,-0.5 C 234.5,-0.5 235.5,-0.5 236.5,-0.5C 240.984,26.7032 244.651,54.0365 247.5,81.5C 250.985,78.516 254.318,75.3493 257.5,72C 259.914,70.1151 262.581,69.4484 265.5,70C 278.167,142.336 281.667,215.17 276,288.5C 273.471,256.092 270.137,223.759 266,191.5C 264.561,188.397 262.727,185.564 260.5,183C 256.081,180.373 251.581,177.873 247,175.5C 245.299,149.426 242.799,123.426 239.5,97.5C 240.053,92.5654 241.053,87.7321 242.5,83C 242.898,74.4449 240.564,66.7782 235.5,60C 227.899,55.5373 220.232,51.3707 212.5,47.5C 210.338,38.8889 209.838,30.2222 211,21.5C 216.53,12.0161 224.03,4.68281 233.5,-0.5 Z"/></g>
<g><path style="opacity:1" fill="#ff983b" d="M 236.5,-0.5 C 239.5,-0.5 242.5,-0.5 245.5,-0.5C 251.741,2.62073 258.075,5.78739 264.5,9C 267.883,12.2692 270.383,16.1026 272,20.5C 274.292,37.131 276.292,53.7977 278,70.5C 282.546,72.5224 287.046,74.6891 291.5,77C 296.186,80.3652 299.353,84.8652 301,90.5C 302.245,98.1285 303.079,105.795 303.5,113.5C 300.736,118.791 296.902,123.458 292,127.5C 289.823,131.031 288.656,134.864 288.5,139C 296.788,195.887 299.455,253.054 296.5,310.5C 275.069,320.749 254.402,319.415 234.5,306.5C 235.164,303.854 235.498,301.021 235.5,298C 233.776,256.174 232.442,214.341 231.5,172.5C 226.532,173.28 222.365,175.613 219,179.5C 217.583,135.158 213.083,91.1575 205.5,47.5C 207.833,47.5 210.167,47.5 212.5,47.5C 220.232,51.3707 227.899,55.5373 235.5,60C 240.564,66.7782 242.898,74.4449 242.5,83C 241.053,87.7321 240.053,92.5654 239.5,97.5C 242.799,123.426 245.299,149.426 247,175.5C 251.581,177.873 256.081,180.373 260.5,183C 262.727,185.564 264.561,188.397 266,191.5C 270.137,223.759 273.471,256.092 276,288.5C 281.667,215.17 278.167,142.336 265.5,70C 262.581,69.4484 259.914,70.1151 257.5,72C 254.318,75.3493 250.985,78.516 247.5,81.5C 244.651,54.0365 240.984,26.7032 236.5,-0.5 Z"/></g>
<g><path style="opacity:0.994" fill="#ffcd5c" d="M 121.5,23.5 C 150.793,91.8834 172.126,162.717 185.5,236C 172.359,192.385 156.193,148.219 137,103.5C 132.905,92.7007 125.072,87.2007 113.5,87C 112.944,86.6174 112.611,86.1174 112.5,85.5C 108.91,76.5681 105.41,67.5681 102,58.5C 101.333,55.1667 101.333,51.8333 102,48.5C 104.895,41.708 108.562,35.3747 113,29.5C 115.249,26.6294 118.082,24.6294 121.5,23.5 Z"/></g>
<g><path style="opacity:1" fill="#ff993b" d="M 356.5,30.5 C 366.401,32.1146 375.401,35.9479 383.5,42C 387.049,45.0429 389.049,48.8762 389.5,53.5C 389.703,55.3904 389.037,56.8904 387.5,58C 379.799,61.0309 374.966,66.5309 373,74.5C 370.551,112.429 365.884,150.096 359,187.5C 360.416,150.861 360.75,114.195 360,77.5C 359.368,61.7852 358.201,46.1185 356.5,30.5 Z"/></g>
<g><path style="opacity:0.999" fill="#ffce5c" d="M 205.5,47.5 C 213.083,91.1575 217.583,135.158 219,179.5C 222.365,175.613 226.532,173.28 231.5,172.5C 232.442,214.341 233.776,256.174 235.5,298C 235.498,301.021 235.164,303.854 234.5,306.5C 220.16,296.508 211.326,282.841 208,265.5C 203.275,257.224 196.108,253.89 186.5,255.5C 188.106,211.48 187.606,167.48 185,123.5C 183.609,111.808 182.109,100.141 180.5,88.5C 180.672,87.5084 180.338,86.8417 179.5,86.5C 179.5,86.1667 179.5,85.8333 179.5,85.5C 178.621,78.0906 179.788,71.0906 183,64.5C 189.221,56.9907 196.721,51.3241 205.5,47.5 Z"/></g>
<g><path style="opacity:1" fill="#ffce5c" d="M 356.5,30.5 C 358.201,46.1185 359.368,61.7852 360,77.5C 360.75,114.195 360.416,150.861 359,187.5C 365.884,150.096 370.551,112.429 373,74.5C 374.966,66.5309 379.799,61.0309 387.5,58C 389.037,56.8904 389.703,55.3904 389.5,53.5C 390.15,53.8039 390.817,54.1373 391.5,54.5C 395.184,52.161 399.184,50.8277 403.5,50.5C 403.161,97.5602 398.661,144.227 390,190.5C 386.071,212.313 381.571,233.979 376.5,255.5C 370.5,255.5 364.5,255.5 358.5,255.5C 358.625,213.956 355.792,172.622 350,131.5C 348.383,127.103 345.883,123.269 342.5,120C 337.777,117.978 333.443,115.478 329.5,112.5C 329.666,94.9649 328.999,77.4649 327.5,60C 327.852,55.0799 329.352,50.5799 332,46.5C 338.681,38.7523 346.847,33.419 356.5,30.5 Z"/></g>
<g><path style="opacity:1" fill="#ff983b" d="M 403.5,50.5 C 414.273,53.4145 423.44,59.0812 431,67.5C 433.888,72.4365 435.055,77.7699 434.5,83.5C 431.144,141.656 422.478,198.99 408.5,255.5C 403.5,255.5 398.5,255.5 393.5,255.5C 387.833,255.5 382.167,255.5 376.5,255.5C 381.571,233.979 386.071,212.313 390,190.5C 398.661,144.227 403.161,97.5602 403.5,50.5 Z"/></g>
<g><path style="opacity:1" fill="#ff983b" d="M 179.5,85.5 C 179.5,85.8333 179.5,86.1667 179.5,86.5C 179.328,87.4916 179.662,88.1583 180.5,88.5C 182.109,100.141 183.609,111.808 185,123.5C 187.606,167.48 188.106,211.48 186.5,255.5C 176.833,255.5 167.167,255.5 157.5,255.5C 142.214,196.969 121.214,140.636 94.5,86.5C 100.333,84.3015 106.333,83.9682 112.5,85.5C 112.611,86.1174 112.944,86.6174 113.5,87C 125.072,87.2007 132.905,92.7007 137,103.5C 156.193,148.219 172.359,192.385 185.5,236C 172.126,162.717 150.793,91.8834 121.5,23.5C 132.477,22.1906 143.144,23.6906 153.5,28C 155.333,29.8333 157.167,31.6667 159,33.5C 166.719,50.586 173.552,67.9193 179.5,85.5 Z"/></g>
<g><path style="opacity:0.992" fill="#ffce5c" d="M 94.5,86.5 C 121.214,140.636 142.214,196.969 157.5,255.5C 146.5,255.5 135.5,255.5 124.5,255.5C 112.338,209.847 96.5049,165.514 77,122.5C 76.1743,117.411 76.5076,112.411 78,107.5C 80.6667,102.833 83.3333,98.1667 86,93.5C 88.4162,90.5766 91.2496,88.2433 94.5,86.5 Z"/></g>
<g><path style="opacity:0.999" fill="#ffce5c" d="M 314.5,109.5 C 324.362,163.662 328.696,218.329 327.5,273.5C 322.607,290.393 312.274,302.726 296.5,310.5C 299.455,253.054 296.788,195.887 288.5,139C 288.656,134.864 289.823,131.031 292,127.5C 296.902,123.458 300.736,118.791 303.5,113.5C 305.592,113.74 307.592,112.906 309.5,111C 311.154,110.392 312.821,109.892 314.5,109.5 Z"/></g>
<g><path style="opacity:1" fill="#ff983b" d="M 314.5,109.5 C 319.802,109.119 324.802,110.119 329.5,112.5C 333.443,115.478 337.777,117.978 342.5,120C 345.883,123.269 348.383,127.103 350,131.5C 355.792,172.622 358.625,213.956 358.5,255.5C 341.985,251.572 331.652,257.572 327.5,273.5C 328.696,218.329 324.362,163.662 314.5,109.5 Z"/></g>
<g><path style="opacity:0.998" fill="#fe5367" d="M 124.5,255.5 C 135.5,255.5 146.5,255.5 157.5,255.5C 167.167,255.5 176.833,255.5 186.5,255.5C 196.108,253.89 203.275,257.224 208,265.5C 211.326,282.841 220.16,296.508 234.5,306.5C 254.402,319.415 275.069,320.749 296.5,310.5C 312.274,302.726 322.607,290.393 327.5,273.5C 331.652,257.572 341.985,251.572 358.5,255.5C 364.5,255.5 370.5,255.5 376.5,255.5C 382.167,255.5 387.833,255.5 393.5,255.5C 381.749,330.51 370.083,405.51 358.5,480.5C 288.167,480.5 217.833,480.5 147.5,480.5C 136.561,413.197 125.727,345.863 115,278.5C 112.085,268.031 115.252,260.364 124.5,255.5 Z"/></g>
<g><path style="opacity:1" fill="#d9435b" d="M 393.5,255.5 C 398.5,255.5 403.5,255.5 408.5,255.5C 416.036,255.529 420.869,259.195 423,266.5C 423.667,269.5 423.667,272.5 423,275.5C 411,350.167 399,424.833 387,499.5C 385.474,504.928 382.307,508.928 377.5,511.5C 305.167,511.5 232.833,511.5 160.5,511.5C 156.189,509.353 153.022,506.02 151,501.5C 149.615,494.523 148.448,487.523 147.5,480.5C 217.833,480.5 288.167,480.5 358.5,480.5C 370.083,405.51 381.749,330.51 393.5,255.5 Z"/></g>
</svg>
