<?xml version="1.0" encoding="UTF-8" standalone="no"?>
<!DOCTYPE svg PUBLIC "-//W3C//DTD SVG 1.1//EN" "http://www.w3.org/Graphics/SVG/1.1/DTD/svg11.dtd">
<svg width="100%" height="100%" viewBox="0 0 1466 1267" version="1.1" xmlns="http://www.w3.org/2000/svg" xmlns:xlink="http://www.w3.org/1999/xlink" xml:space="preserve" xmlns:serif="http://www.serif.com/" style="fill-rule:evenodd;clip-rule:evenodd;stroke-linejoin:round;stroke-miterlimit:2;">
    <g>
        <clipPath id="_clip1">
            <rect x="0" y="0" width="1465.15" height="1266.34"/>
        </clipPath>
        <g clip-path="url(#_clip1)">
            <g id="b">
                <path d="M0.196,0.475L0.23,0.439C0.272,0.395 0.314,0.34 0.287,0.296C0.242,0.221 0.068,0.295 0.014,0.348L0.014,0.087C0.152,0.031 0.335,0 0.454,0.061C0.535,0.103 0.589,0.183 0.598,0.273C0.611,0.399 0.574,0.485 0.434,0.613L0.4,0.644C0.347,0.691 0.303,0.739 0.327,0.784C0.366,0.859 0.514,0.787 0.563,0.732L0.563,0.985C0.432,1.043 0.271,1.075 0.152,1.013C0.079,0.98 0.027,0.911 0.016,0.831C0,0.703 0.064,0.611 0.196,0.475Z" style="fill-rule:nonzero;"/>
            </g>
            <g id="c">
                <path d="M0.079,0.976L0,0L0.254,0L0.268,0.688L0.387,0L0.592,0L0.696,0.688L0.724,0L0.978,0L0.902,0.976L0.575,0.976L0.487,0.449L0.406,0.976L0.079,0.976Z" style="fill-rule:nonzero;"/>
            </g>
            <g id="d">
                <path d="M0.234,0.976L0,0L0.27,0L0.296,0.135L0.451,0.135L0.475,0L0.75,0L0.546,0.976L0.234,0.976M0.331,0.336L0.382,0.715L0.43,0.336L0.331,0.336Z" style="fill-rule:nonzero;"/>
            </g>
            <g id="e">
                <path d="M0,0.976L0,0L0.283,0L0.283,0.379L0.391,0.379L0.391,0L0.674,0L0.674,0.976L0.391,0.976L0.391,0.623L0.283,0.623L0.283,0.976L0,0.976Z" style="fill-rule:nonzero;"/>
            </g>
            <g id="f">
                <path d="M0.131,0.491L0,0L0.176,0L0.39,0.491L0.131,0.491Z" style="fill-rule:nonzero;"/>
            </g>
            <g id="g">
                <path d="M0,0L0.255,0C0.539,0 0.67,0.165 0.687,0.449C0.706,0.783 0.536,0.976 0.255,0.976L0,0.976L0,0M0.283,0.236L0.283,0.72C0.332,0.72 0.358,0.715 0.38,0.665C0.415,0.543 0.415,0.413 0.38,0.291C0.356,0.244 0.332,0.236 0.283,0.236Z" style="fill-rule:nonzero;"/>
            </g>
            <g id="i">
                <path d="M0.01,0.999L0.01,0.385C0.01,0.289 0,0 0.348,0C0.704,0 0.698,0.335 0.698,0.42L0.698,0.999L0.415,0.999L0.415,0.429C0.415,0.36 0.422,0.263 0.355,0.263C0.292,0.263 0.292,0.359 0.292,0.423L0.292,0.999L0.01,0.999Z" style="fill-rule:nonzero;"/>
            </g>
            <g id="j">
                <path d="M0,0.976L0,0L0.283,0L0.283,0.319C0.363,0.319 0.66,0.308 0.66,0.631C0.66,0.971 0.376,0.976 0.274,0.976L0,0.976M0.283,0.548L0.283,0.761C0.322,0.761 0.359,0.763 0.384,0.721C0.402,0.682 0.405,0.637 0.391,0.596C0.368,0.548 0.328,0.548 0.283,0.548Z" style="fill-rule:nonzero;"/>
            </g>
            <g id="b1" serif:id="b" transform="matrix(213.458,0,0,-213.458,8.53867,1056.49)">
                <path d="M0.196,0.475L0.23,0.439C0.272,0.395 0.314,0.34 0.287,0.296C0.242,0.221 0.068,0.295 0.014,0.348L0.014,0.087C0.152,0.031 0.335,0 0.454,0.061C0.535,0.103 0.589,0.183 0.598,0.273C0.611,0.399 0.574,0.485 0.434,0.613L0.4,0.644C0.347,0.691 0.303,0.739 0.327,0.784C0.366,0.859 0.514,0.787 0.563,0.732L0.563,0.985C0.432,1.043 0.271,1.075 0.152,1.013C0.079,0.98 0.027,0.911 0.016,0.831C0,0.703 0.064,0.611 0.196,0.475Z" style="fill:white;fill-rule:nonzero;"/>
            </g>
            <g id="c1" serif:id="c" transform="matrix(213.458,0,0,-213.458,149.707,1045.96)">
                <path d="M0.079,0.976L0,0L0.254,0L0.268,0.688L0.387,0L0.592,0L0.696,0.688L0.724,0L0.978,0L0.902,0.976L0.575,0.976L0.487,0.449L0.406,0.976L0.079,0.976Z" style="fill:rgb(255,252,252);fill-rule:nonzero;"/>
            </g>
            <g id="d1" serif:id="d" transform="matrix(213.458,0,0,-213.458,370.848,1045.96)">
                <path d="M0.234,0.976L0,0L0.27,0L0.296,0.135L0.451,0.135L0.475,0L0.75,0L0.546,0.976L0.234,0.976M0.331,0.336L0.382,0.715L0.43,0.336L0.331,0.336Z" style="fill:rgb(255,252,252);fill-rule:nonzero;"/>
            </g>
            <g id="b2" serif:id="b" transform="matrix(213.458,0,0,-213.458,534.784,1056.49)">
                <path d="M0.196,0.475L0.23,0.439C0.272,0.395 0.314,0.34 0.287,0.296C0.242,0.221 0.068,0.295 0.014,0.348L0.014,0.087C0.152,0.031 0.335,0 0.454,0.061C0.535,0.103 0.589,0.183 0.598,0.273C0.611,0.399 0.574,0.485 0.434,0.613L0.4,0.644C0.347,0.691 0.303,0.739 0.327,0.784C0.366,0.859 0.514,0.787 0.563,0.732L0.563,0.985C0.432,1.043 0.271,1.075 0.152,1.013C0.079,0.98 0.027,0.911 0.016,0.831C0,0.703 0.064,0.611 0.196,0.475Z" style="fill:rgb(255,252,252);fill-rule:nonzero;"/>
            </g>
            <g id="e1" serif:id="e" transform="matrix(213.458,0,0,-213.458,680.505,1045.96)">
                <path d="M0,0.976L0,0L0.283,0L0.283,0.379L0.391,0.379L0.391,0L0.674,0L0.674,0.976L0.391,0.976L0.391,0.623L0.283,0.623L0.283,0.976L0,0.976Z" style="fill:rgb(255,252,252);fill-rule:nonzero;"/>
            </g>
            <g id="f1" serif:id="f" transform="matrix(213.458,0,0,-213.458,840.457,942.363)">
                <path d="M0.131,0.491L0,0L0.176,0L0.39,0.491L0.131,0.491Z" style="fill:rgb(255,252,252);fill-rule:nonzero;"/>
            </g>
            <g id="g1" serif:id="g" transform="matrix(213.458,0,0,-213.458,943.201,1045.96)">
                <path d="M0,0L0.255,0C0.539,0 0.67,0.165 0.687,0.449C0.706,0.783 0.536,0.976 0.255,0.976L0,0.976L0,0M0.283,0.236L0.283,0.72C0.332,0.72 0.358,0.715 0.38,0.665C0.415,0.543 0.415,0.413 0.38,0.291C0.356,0.244 0.332,0.236 0.283,0.236Z" style="fill:rgb(255,252,252);fill-rule:nonzero;"/>
            </g>
            <g id="i1" serif:id="i" transform="matrix(213.458,0,0,-213.458,1153.53,1050.8)">
                <path d="M0.01,0.999L0.01,0.385C0.01,0.289 0,0 0.348,0C0.704,0 0.698,0.335 0.698,0.42L0.698,0.999L0.415,0.999L0.415,0.429C0.415,0.36 0.422,0.263 0.355,0.263C0.292,0.263 0.292,0.359 0.292,0.423L0.292,0.999L0.01,0.999Z" style="fill:rgb(255,252,252);fill-rule:nonzero;"/>
            </g>
            <g id="j1" serif:id="j" transform="matrix(213.458,0,0,-213.458,1324.3,1045.96)">
                <path d="M0,0.976L0,0L0.283,0L0.283,0.319C0.363,0.319 0.66,0.308 0.66,0.631C0.66,0.971 0.376,0.976 0.274,0.976L0,0.976M0.283,0.548L0.283,0.761C0.322,0.761 0.359,0.763 0.384,0.721C0.402,0.682 0.405,0.637 0.391,0.596C0.368,0.548 0.328,0.548 0.283,0.548Z" style="fill:rgb(255,252,252);fill-rule:nonzero;"/>
            </g>
            <g id="k">
                <path d="M0.335,0.396C0.246,0.407 0.163,0.443 0.094,0.499C0.04,0.547 0.009,0.616 0.011,0.688C0.011,0.768 0.04,0.835 0.1,0.887C0.16,0.94 0.235,0.965 0.327,0.965C0.407,0.965 0.48,0.944 0.546,0.903C0.609,0.863 0.658,0.804 0.686,0.735L0.519,0.673C0.503,0.711 0.477,0.743 0.443,0.765C0.411,0.788 0.372,0.8 0.332,0.8C0.295,0.802 0.259,0.791 0.23,0.769C0.205,0.751 0.19,0.722 0.191,0.691C0.191,0.66 0.204,0.636 0.232,0.617C0.274,0.594 0.319,0.578 0.367,0.572C0.456,0.559 0.539,0.522 0.608,0.464C0.664,0.417 0.696,0.348 0.695,0.275C0.695,0.195 0.664,0.128 0.602,0.077C0.535,0.024 0.451,-0.004 0.366,0C0.288,-0.001 0.211,0.02 0.144,0.06C0.08,0.098 0.03,0.155 0,0.224L0.168,0.304C0.183,0.263 0.21,0.227 0.246,0.201C0.279,0.178 0.32,0.165 0.362,0.165C0.406,0.165 0.442,0.176 0.471,0.197C0.498,0.215 0.514,0.245 0.514,0.277C0.514,0.308 0.499,0.332 0.47,0.351C0.428,0.375 0.382,0.39 0.335,0.396Z" style="fill-rule:nonzero;"/>
            </g>
            <g id="l">
                <rect x="0" y="0" width="0.173" height="0.933" style="fill-rule:nonzero;"/>
            </g>
            <g id="m">
                <path d="M0,0L0,0.933L0.202,0.933L0.495,0.375L0.788,0.933L0.99,0.933L0.99,0L0.818,0L0.818,0.652L0.552,0.143L0.439,0.143L0.172,0.652L0.172,0L0,0Z" style="fill-rule:nonzero;"/>
            </g>
            <g id="n">
                <path d="M0.391,0.763L0.174,0.763L0.174,0.453L0.391,0.453C0.44,0.453 0.483,0.468 0.516,0.499C0.55,0.529 0.567,0.565 0.567,0.611C0.567,0.655 0.55,0.691 0.516,0.719C0.481,0.749 0.437,0.764 0.391,0.763M0.391,0.283L0.174,0.283L0.174,0L0,0L0,0.933L0.404,0.933C0.493,0.936 0.58,0.903 0.644,0.841C0.707,0.782 0.742,0.698 0.74,0.611C0.741,0.522 0.704,0.436 0.638,0.377C0.571,0.315 0.482,0.281 0.391,0.283Z" style="fill-rule:nonzero;"/>
            </g>
            <g id="o">
                <path d="M0.174,0.171L0.654,0.171L0.654,0L0,0L0,0.933L0.174,0.933L0.174,0.171Z" style="fill-rule:nonzero;"/>
            </g>
            <g id="p">
                <path d="M0.348,0L0.522,0L0.522,0.303L0.843,0.933L0.64,0.933L0.435,0.512L0.204,0.933L0,0.933L0.348,0.303L0.348,0Z" style="fill-rule:nonzero;"/>
            </g>
            <g id="r">
                <path d="M0.226,0.377L0.748,0.377L0.748,0.215L0.226,0.215L0.226,0.377M0.199,0L0,0L0.371,0.933L0.598,0.933L0.971,0L0.772,0L0.487,0.755L0.199,0Z" style="fill-rule:nonzero;"/>
            </g>
            <g id="s">
                <path d="M0,0L0,0.933L0.174,0.933L0.174,0.553L0.61,0.553L0.61,0.933L0.783,0.933L0.783,0L0.61,0L0.61,0.383L0.174,0.383L0.174,0L0,0Z" style="fill-rule:nonzero;"/>
            </g>
            <g id="t">
                <path d="M0,0L0,0.933L0.2,0.933L0.61,0.275L0.61,0.933L0.783,0.933L0.783,0L0.583,0L0.174,0.663L0.174,0L0,0Z" style="fill-rule:nonzero;"/>
            </g>
            <g id="u">
                <path d="M0.263,0.72C0.203,0.66 0.171,0.577 0.174,0.492C0.174,0.399 0.203,0.323 0.263,0.263C0.32,0.204 0.399,0.172 0.482,0.173C0.551,0.172 0.618,0.194 0.674,0.236C0.727,0.279 0.762,0.333 0.774,0.401L0.431,0.401L0.431,0.557L0.959,0.557C0.962,0.529 0.963,0.501 0.963,0.473C0.963,0.471 0.963,0.469 0.963,0.466C0.963,0.21 0.752,-0 0.496,-0C0.491,-0 0.486,-0 0.482,0C0.355,-0 0.233,0.049 0.142,0.137C0.097,0.182 0.061,0.235 0.038,0.293C-0.037,0.482 0.004,0.698 0.142,0.847C0.186,0.89 0.238,0.924 0.295,0.947C0.354,0.972 0.415,0.984 0.482,0.984C0.664,0.986 0.832,0.882 0.911,0.717L0.756,0.637C0.732,0.69 0.693,0.734 0.644,0.764C0.596,0.795 0.539,0.811 0.482,0.811C0.399,0.812 0.32,0.779 0.263,0.72Z" style="fill-rule:nonzero;"/>
            </g>
            <g id="v">
                <path d="M0.455,0.763L0.174,0.763L0.174,0.551L0.46,0.551C0.491,0.551 0.516,0.561 0.536,0.584C0.557,0.606 0.568,0.635 0.567,0.665C0.568,0.692 0.556,0.718 0.535,0.735C0.513,0.754 0.484,0.764 0.455,0.763M0.46,0.385L0.174,0.385L0.174,0.171L0.468,0.171C0.5,0.171 0.527,0.18 0.548,0.199C0.569,0.217 0.581,0.243 0.58,0.271C0.581,0.301 0.568,0.331 0.546,0.352C0.523,0.374 0.492,0.386 0.46,0.385M0.484,0L0,0L0,0.933L0.471,0.933C0.541,0.936 0.61,0.911 0.663,0.864C0.713,0.821 0.742,0.757 0.74,0.691C0.741,0.646 0.73,0.602 0.708,0.563C0.688,0.525 0.657,0.493 0.62,0.472C0.704,0.429 0.755,0.342 0.754,0.248C0.755,0.181 0.726,0.116 0.676,0.071C0.624,0.023 0.555,-0.002 0.484,0Z" style="fill-rule:nonzero;"/>
            </g>
            <g id="w">
                <path d="M0.667,0.109C0.593,0.037 0.493,-0.003 0.39,0C0.385,-0 0.38,-0 0.376,-0C0.17,-0 -0,0.169 -0,0.376C-0,0.38 0,0.384 0,0.388L0,0.948L0.174,0.948L0.174,0.401C0.174,0.331 0.194,0.275 0.234,0.233C0.275,0.193 0.332,0.171 0.39,0.173C0.452,0.173 0.504,0.193 0.544,0.233C0.587,0.279 0.609,0.339 0.606,0.401L0.606,0.948L0.779,0.948L0.779,0.388C0.782,0.284 0.741,0.183 0.667,0.109Z" style="fill-rule:nonzero;"/>
            </g>
            <g id="x">
                <path d="M0.399,0.763L0.174,0.763L0.174,0.497L0.399,0.497C0.444,0.497 0.482,0.511 0.512,0.536C0.542,0.559 0.559,0.594 0.559,0.632C0.559,0.668 0.542,0.703 0.514,0.725C0.481,0.751 0.44,0.764 0.399,0.763M0.498,0.347L0.74,0L0.54,0L0.308,0.329L0.174,0.329L0.174,0L0,0L0,0.933L0.412,0.933C0.499,0.937 0.583,0.907 0.648,0.849C0.71,0.793 0.743,0.712 0.74,0.628C0.743,0.487 0.638,0.364 0.498,0.347Z" style="fill-rule:nonzero;"/>
            </g>
            <g id="y">
                <path d="M0.174,0.553L0.622,0.553L0.622,0.383L0.174,0.383L0.174,0.171L0.654,0.171L0.654,0L0,0L0,0.933L0.654,0.933L0.654,0.763L0.174,0.763L0.174,0.553Z" style="fill-rule:nonzero;"/>
            </g>
            <g id="k1" serif:id="k" transform="matrix(61.7813,0,0,-61.7813,171.565,1239.73)">
                <path d="M0.335,0.396C0.246,0.407 0.163,0.443 0.094,0.499C0.04,0.547 0.009,0.616 0.011,0.688C0.011,0.768 0.04,0.835 0.1,0.887C0.16,0.94 0.235,0.965 0.327,0.965C0.407,0.965 0.48,0.944 0.546,0.903C0.609,0.863 0.658,0.804 0.686,0.735L0.519,0.673C0.503,0.711 0.477,0.743 0.443,0.765C0.411,0.788 0.372,0.8 0.332,0.8C0.295,0.802 0.259,0.791 0.23,0.769C0.205,0.751 0.19,0.722 0.191,0.691C0.191,0.66 0.204,0.636 0.232,0.617C0.274,0.594 0.319,0.578 0.367,0.572C0.456,0.559 0.539,0.522 0.608,0.464C0.664,0.417 0.696,0.348 0.695,0.275C0.695,0.195 0.664,0.128 0.602,0.077C0.535,0.024 0.451,-0.004 0.366,0C0.288,-0.001 0.211,0.02 0.144,0.06C0.08,0.098 0.03,0.155 0,0.224L0.168,0.304C0.183,0.263 0.21,0.227 0.246,0.201C0.279,0.178 0.32,0.165 0.362,0.165C0.406,0.165 0.442,0.176 0.471,0.197C0.498,0.215 0.514,0.245 0.514,0.277C0.514,0.308 0.499,0.332 0.47,0.351C0.428,0.375 0.382,0.39 0.335,0.396Z" style="fill:rgb(255,252,252);fill-rule:nonzero;"/>
            </g>
            <g id="l1" serif:id="l" transform="matrix(61.7813,0,0,-61.7813,221.568,1238.82)">
                <rect x="0" y="0" width="0.173" height="0.933" style="fill:rgb(255,252,252);fill-rule:nonzero;"/>
            </g>
            <g id="m1" serif:id="m" transform="matrix(61.7813,0,0,-61.7813,240.513,1238.82)">
                <path d="M0,0L0,0.933L0.202,0.933L0.495,0.375L0.788,0.933L0.99,0.933L0.99,0L0.818,0L0.818,0.652L0.552,0.143L0.439,0.143L0.172,0.652L0.172,0L0,0Z" style="fill:rgb(255,252,252);fill-rule:nonzero;"/>
            </g>
            <g id="n1" serif:id="n" transform="matrix(61.7813,0,0,-61.7813,309.873,1238.82)">
                <path d="M0.391,0.763L0.174,0.763L0.174,0.453L0.391,0.453C0.44,0.453 0.483,0.468 0.516,0.499C0.55,0.529 0.567,0.565 0.567,0.611C0.567,0.655 0.55,0.691 0.516,0.719C0.481,0.749 0.437,0.764 0.391,0.763M0.391,0.283L0.174,0.283L0.174,0L0,0L0,0.933L0.404,0.933C0.493,0.936 0.58,0.903 0.644,0.841C0.707,0.782 0.742,0.698 0.74,0.611C0.741,0.522 0.704,0.436 0.638,0.377C0.571,0.315 0.482,0.281 0.391,0.283Z" style="fill:rgb(255,252,252);fill-rule:nonzero;"/>
            </g>
            <g id="o1" serif:id="o" transform="matrix(61.7813,0,0,-61.7813,362.347,1238.82)">
                <path d="M0.174,0.171L0.654,0.171L0.654,0L0,0L0,0.933L0.174,0.933L0.174,0.171Z" style="fill:rgb(255,252,252);fill-rule:nonzero;"/>
            </g>
            <g id="p1" serif:id="p" transform="matrix(61.7813,0,0,-61.7813,394.391,1238.82)">
                <path d="M0.348,0L0.522,0L0.522,0.303L0.843,0.933L0.64,0.933L0.435,0.512L0.204,0.933L0,0.933L0.348,0.303L0.348,0Z" style="fill:rgb(255,252,252);fill-rule:nonzero;"/>
            </g>
            <g id="k2" serif:id="k" transform="matrix(61.7813,0,0,-61.7813,473.471,1239.73)">
                <path d="M0.335,0.396C0.246,0.407 0.163,0.443 0.094,0.499C0.04,0.547 0.009,0.616 0.011,0.688C0.011,0.768 0.04,0.835 0.1,0.887C0.16,0.94 0.235,0.965 0.327,0.965C0.407,0.965 0.48,0.944 0.546,0.903C0.609,0.863 0.658,0.804 0.686,0.735L0.519,0.673C0.503,0.711 0.477,0.743 0.443,0.765C0.411,0.788 0.372,0.8 0.332,0.8C0.295,0.802 0.259,0.791 0.23,0.769C0.205,0.751 0.19,0.722 0.191,0.691C0.191,0.66 0.204,0.636 0.232,0.617C0.274,0.594 0.319,0.578 0.367,0.572C0.456,0.559 0.539,0.522 0.608,0.464C0.664,0.417 0.696,0.348 0.695,0.275C0.695,0.195 0.664,0.128 0.602,0.077C0.535,0.024 0.451,-0.004 0.366,0C0.288,-0.001 0.211,0.02 0.144,0.06C0.08,0.098 0.03,0.155 0,0.224L0.168,0.304C0.183,0.263 0.21,0.227 0.246,0.201C0.279,0.178 0.32,0.165 0.362,0.165C0.406,0.165 0.442,0.176 0.471,0.197C0.498,0.215 0.514,0.245 0.514,0.277C0.514,0.308 0.499,0.332 0.47,0.351C0.428,0.375 0.382,0.39 0.335,0.396Z" style="fill:rgb(255,252,252);fill-rule:nonzero;"/>
            </g>
            <g id="m2" serif:id="m" transform="matrix(61.7813,0,0,-61.7813,522.977,1238.82)">
                <path d="M0,0L0,0.933L0.202,0.933L0.495,0.375L0.788,0.933L0.99,0.933L0.99,0L0.818,0L0.818,0.652L0.552,0.143L0.439,0.143L0.172,0.652L0.172,0L0,0Z" style="fill:rgb(255,252,252);fill-rule:nonzero;"/>
            </g>
            <g id="r1" serif:id="r" transform="matrix(61.7813,0,0,-61.7813,590.36,1238.82)">
                <path d="M0.226,0.377L0.748,0.377L0.748,0.215L0.226,0.215L0.226,0.377M0.199,0L0,0L0.371,0.933L0.598,0.933L0.971,0L0.772,0L0.487,0.755L0.199,0Z" style="fill:rgb(255,252,252);fill-rule:nonzero;"/>
            </g>
            <g id="k3" serif:id="k" transform="matrix(61.7813,0,0,-61.7813,652.644,1239.73)">
                <path d="M0.335,0.396C0.246,0.407 0.163,0.443 0.094,0.499C0.04,0.547 0.009,0.616 0.011,0.688C0.011,0.768 0.04,0.835 0.1,0.887C0.16,0.94 0.235,0.965 0.327,0.965C0.407,0.965 0.48,0.944 0.546,0.903C0.609,0.863 0.658,0.804 0.686,0.735L0.519,0.673C0.503,0.711 0.477,0.743 0.443,0.765C0.411,0.788 0.372,0.8 0.332,0.8C0.295,0.802 0.259,0.791 0.23,0.769C0.205,0.751 0.19,0.722 0.191,0.691C0.191,0.66 0.204,0.636 0.232,0.617C0.274,0.594 0.319,0.578 0.367,0.572C0.456,0.559 0.539,0.522 0.608,0.464C0.664,0.417 0.696,0.348 0.695,0.275C0.695,0.195 0.664,0.128 0.602,0.077C0.535,0.024 0.451,-0.004 0.366,0C0.288,-0.001 0.211,0.02 0.144,0.06C0.08,0.098 0.03,0.155 0,0.224L0.168,0.304C0.183,0.263 0.21,0.227 0.246,0.201C0.279,0.178 0.32,0.165 0.362,0.165C0.406,0.165 0.442,0.176 0.471,0.197C0.498,0.215 0.514,0.245 0.514,0.277C0.514,0.308 0.499,0.332 0.47,0.351C0.428,0.375 0.382,0.39 0.335,0.396Z" style="fill:rgb(255,252,252);fill-rule:nonzero;"/>
            </g>
            <g id="s1" serif:id="s" transform="matrix(61.7813,0,0,-61.7813,702.647,1238.82)">
                <path d="M0,0L0,0.933L0.174,0.933L0.174,0.553L0.61,0.553L0.61,0.933L0.783,0.933L0.783,0L0.61,0L0.61,0.383L0.174,0.383L0.174,0L0,0Z" style="fill:rgb(255,252,252);fill-rule:nonzero;"/>
            </g>
            <g id="l2" serif:id="l" transform="matrix(61.7813,0,0,-61.7813,759.733,1238.82)">
                <rect x="0" y="0" width="0.173" height="0.933" style="fill:rgb(255,252,252);fill-rule:nonzero;"/>
            </g>
            <g id="t1" serif:id="t" transform="matrix(61.7813,0,0,-61.7813,779.173,1238.82)">
                <path d="M0,0L0,0.933L0.2,0.933L0.61,0.275L0.61,0.933L0.783,0.933L0.783,0L0.583,0L0.174,0.663L0.174,0L0,0Z" style="fill:rgb(255,252,252);fill-rule:nonzero;"/>
            </g>
            <g id="u1" serif:id="u" transform="matrix(61.7813,0,0,-61.7813,834.611,1240.31)">
                <path d="M0.263,0.72C0.203,0.66 0.171,0.577 0.174,0.492C0.174,0.399 0.203,0.323 0.263,0.263C0.32,0.204 0.399,0.172 0.482,0.173C0.551,0.172 0.618,0.194 0.674,0.236C0.727,0.279 0.762,0.333 0.774,0.401L0.431,0.401L0.431,0.557L0.959,0.557C0.962,0.529 0.963,0.501 0.963,0.473C0.963,0.471 0.963,0.469 0.963,0.466C0.963,0.21 0.752,-0 0.496,-0C0.491,-0 0.486,-0 0.482,0C0.355,-0 0.233,0.049 0.142,0.137C0.097,0.182 0.061,0.235 0.038,0.293C-0.037,0.482 0.004,0.698 0.142,0.847C0.186,0.89 0.238,0.924 0.295,0.947C0.354,0.972 0.415,0.984 0.482,0.984C0.664,0.986 0.832,0.882 0.911,0.717L0.756,0.637C0.732,0.69 0.693,0.734 0.644,0.764C0.596,0.795 0.539,0.811 0.482,0.811C0.399,0.812 0.32,0.779 0.263,0.72Z" style="fill:rgb(255,252,252);fill-rule:nonzero;"/>
            </g>
            <g id="v1" serif:id="v" transform="matrix(61.7813,0,0,-61.7813,923.412,1238.82)">
                <path d="M0.455,0.763L0.174,0.763L0.174,0.551L0.46,0.551C0.491,0.551 0.516,0.561 0.536,0.584C0.557,0.606 0.568,0.635 0.567,0.665C0.568,0.692 0.556,0.718 0.535,0.735C0.513,0.754 0.484,0.764 0.455,0.763M0.46,0.385L0.174,0.385L0.174,0.171L0.468,0.171C0.5,0.171 0.527,0.18 0.548,0.199C0.569,0.217 0.581,0.243 0.58,0.271C0.581,0.301 0.568,0.331 0.546,0.352C0.523,0.374 0.492,0.386 0.46,0.385M0.484,0L0,0L0,0.933L0.471,0.933C0.541,0.936 0.61,0.911 0.663,0.864C0.713,0.821 0.742,0.757 0.74,0.691C0.741,0.646 0.73,0.602 0.708,0.563C0.688,0.525 0.657,0.493 0.62,0.472C0.704,0.429 0.755,0.342 0.754,0.248C0.755,0.181 0.726,0.116 0.676,0.071C0.624,0.023 0.555,-0.002 0.484,0Z" style="fill:rgb(255,252,252);fill-rule:nonzero;"/>
            </g>
            <g id="w1" serif:id="w" transform="matrix(61.7813,0,0,-61.7813,977.285,1239.73)">
                <path d="M0.667,0.109C0.593,0.037 0.493,-0.003 0.39,0C0.385,-0 0.38,-0 0.376,-0C0.17,-0 -0,0.169 -0,0.376C-0,0.38 0,0.384 0,0.388L0,0.948L0.174,0.948L0.174,0.401C0.174,0.331 0.194,0.275 0.234,0.233C0.275,0.193 0.332,0.171 0.39,0.173C0.452,0.173 0.504,0.193 0.544,0.233C0.587,0.279 0.609,0.339 0.606,0.401L0.606,0.948L0.779,0.948L0.779,0.388C0.782,0.284 0.741,0.183 0.667,0.109Z" style="fill:rgb(255,252,252);fill-rule:nonzero;"/>
            </g>
            <g id="x1" serif:id="x" transform="matrix(61.7813,0,0,-61.7813,1034.12,1238.82)">
                <path d="M0.399,0.763L0.174,0.763L0.174,0.497L0.399,0.497C0.444,0.497 0.482,0.511 0.512,0.536C0.542,0.559 0.559,0.594 0.559,0.632C0.559,0.668 0.542,0.703 0.514,0.725C0.481,0.751 0.44,0.764 0.399,0.763M0.498,0.347L0.74,0L0.54,0L0.308,0.329L0.174,0.329L0.174,0L0,0L0,0.933L0.412,0.933C0.499,0.937 0.583,0.907 0.648,0.849C0.71,0.793 0.743,0.712 0.74,0.628C0.743,0.487 0.638,0.364 0.498,0.347Z" style="fill:rgb(255,252,252);fill-rule:nonzero;"/>
            </g>
            <g id="u2" serif:id="u" transform="matrix(61.7813,0,0,-61.7813,1085.28,1240.31)">
                <path d="M0.263,0.72C0.203,0.66 0.171,0.577 0.174,0.492C0.174,0.399 0.203,0.323 0.263,0.263C0.32,0.204 0.399,0.172 0.482,0.173C0.551,0.172 0.618,0.194 0.674,0.236C0.727,0.279 0.762,0.333 0.774,0.401L0.431,0.401L0.431,0.557L0.959,0.557C0.962,0.529 0.963,0.501 0.963,0.473C0.963,0.471 0.963,0.469 0.963,0.466C0.963,0.21 0.752,-0 0.496,-0C0.491,-0 0.486,-0 0.482,0C0.355,-0 0.233,0.049 0.142,0.137C0.097,0.182 0.061,0.235 0.038,0.293C-0.037,0.482 0.004,0.698 0.142,0.847C0.186,0.89 0.238,0.924 0.295,0.947C0.354,0.972 0.415,0.984 0.482,0.984C0.664,0.986 0.832,0.882 0.911,0.717L0.756,0.637C0.732,0.69 0.693,0.734 0.644,0.764C0.596,0.795 0.539,0.811 0.482,0.811C0.399,0.812 0.32,0.779 0.263,0.72Z" style="fill:rgb(255,252,252);fill-rule:nonzero;"/>
            </g>
            <g id="y1" serif:id="y" transform="matrix(61.7813,0,0,-61.7813,1151.84,1238.82)">
                <path d="M0.174,0.553L0.622,0.553L0.622,0.383L0.174,0.383L0.174,0.171L0.654,0.171L0.654,0L0,0L0,0.933L0.654,0.933L0.654,0.763L0.174,0.763L0.174,0.553Z" style="fill:rgb(255,252,252);fill-rule:nonzero;"/>
            </g>
            <g id="x2" serif:id="x" transform="matrix(61.7813,0,0,-61.7813,1199.53,1238.82)">
                <path d="M0.399,0.763L0.174,0.763L0.174,0.497L0.399,0.497C0.444,0.497 0.482,0.511 0.512,0.536C0.542,0.559 0.559,0.594 0.559,0.632C0.559,0.668 0.542,0.703 0.514,0.725C0.481,0.751 0.44,0.764 0.399,0.763M0.498,0.347L0.74,0L0.54,0L0.308,0.329L0.174,0.329L0.174,0L0,0L0,0.933L0.412,0.933C0.499,0.937 0.583,0.907 0.648,0.849C0.71,0.793 0.743,0.712 0.74,0.628C0.743,0.487 0.638,0.364 0.498,0.347Z" style="fill:rgb(255,252,252);fill-rule:nonzero;"/>
            </g>
            <g id="k4" serif:id="k" transform="matrix(61.7813,0,0,-61.7813,1250.69,1239.73)">
                <path d="M0.335,0.396C0.246,0.407 0.163,0.443 0.094,0.499C0.04,0.547 0.009,0.616 0.011,0.688C0.011,0.768 0.04,0.835 0.1,0.887C0.16,0.94 0.235,0.965 0.327,0.965C0.407,0.965 0.48,0.944 0.546,0.903C0.609,0.863 0.658,0.804 0.686,0.735L0.519,0.673C0.503,0.711 0.477,0.743 0.443,0.765C0.411,0.788 0.372,0.8 0.332,0.8C0.295,0.802 0.259,0.791 0.23,0.769C0.205,0.751 0.19,0.722 0.191,0.691C0.191,0.66 0.204,0.636 0.232,0.617C0.274,0.594 0.319,0.578 0.367,0.572C0.456,0.559 0.539,0.522 0.608,0.464C0.664,0.417 0.696,0.348 0.695,0.275C0.695,0.195 0.664,0.128 0.602,0.077C0.535,0.024 0.451,-0.004 0.366,0C0.288,-0.001 0.211,0.02 0.144,0.06C0.08,0.098 0.03,0.155 0,0.224L0.168,0.304C0.183,0.263 0.21,0.227 0.246,0.201C0.279,0.178 0.32,0.165 0.362,0.165C0.406,0.165 0.442,0.176 0.471,0.197C0.498,0.215 0.514,0.245 0.514,0.277C0.514,0.308 0.499,0.332 0.47,0.351C0.428,0.375 0.382,0.39 0.335,0.396Z" style="fill:rgb(255,252,252);fill-rule:nonzero;"/>
            </g>
            <path d="M340.547,560.575C436.787,616.615 686.403,625.641 733.812,625.641C773.496,625.641 953.735,621.877 1067.5,586.905C1122.87,569.883 1162.5,545.467 1162.5,510.492C1162.5,491.801 1162.34,430.827 1107.3,434.853C1067.53,437.74 1006.4,444.285 939.21,450.043C936.256,450.296 933.392,451.249 930.883,452.829C925.246,456.432 921.523,462.549 918.826,468.436C913.772,479.492 911.38,492.713 911.038,504.832C910.962,508.403 911.19,512.012 910.924,515.583C910.544,520.293 909.252,525.193 905.834,528.463C902.452,531.767 896.602,532.792 892.992,529.716C889.374,526.628 889.628,521.571 889.758,516.493C889.894,511.201 889.895,505.885 885.238,502.752C881.542,500.264 876.558,500.828 873.019,503.533C866.119,508.808 865.522,517.675 865.982,525.764C866.514,535.111 868.147,544.417 870.768,553.421C873.39,562.311 877.035,571.2 876.656,580.471C876.276,589.74 870.274,599.693 861.043,600.605C854.622,601.251 848.354,597.224 844.935,591.753C841.515,586.321 840.566,579.635 840.718,573.176C841.098,557.524 847.366,542.709 850.747,527.436C854.09,512.125 852.951,495.296 843.452,482.836C843.395,482.76 843.337,482.685 843.279,482.611C831.318,467.135 812.352,458.753 792.803,459.427C782.008,459.8 771.328,460.071 760.828,460.227C751.24,460.367 741.8,460.411 732.559,460.347C597.579,459.395 477.15,449.441 357.86,434.853C339.132,432.556 326.758,438.475 318.58,448.009C305.087,463.744 303.028,489.327 302.716,504.08C302.663,506.555 302.66,508.724 302.66,510.493C302.66,530.365 317.02,546.875 340.548,560.575M732.574,0C583.516,0 289.559,24.773 289.559,216.659C289.559,247.288 291.123,290.864 346.446,299.365C444.424,314.42 575.571,331.983 732.576,331.983C889.582,331.983 1013.56,319.837 1118.71,299.365C1173.65,288.668 1175.59,247.288 1175.59,216.659C1175.59,24.773 881.635,0 732.574,0" style="fill:rgb(251,180,101);fill-rule:nonzero;"/>
        </g>
    </g>
</svg>
