<?xml version="1.0" encoding="UTF-8" standalone="no"?>
<!DOCTYPE svg PUBLIC "-//W3C//DTD SVG 1.1//EN" "http://www.w3.org/Graphics/SVG/1.1/DTD/svg11.dtd">
<svg width="100%" height="100%" viewBox="0 0 887 626" version="1.1" xmlns="http://www.w3.org/2000/svg" xmlns:xlink="http://www.w3.org/1999/xlink" xml:space="preserve" xmlns:serif="http://www.serif.com/" style="fill-rule:evenodd;clip-rule:evenodd;stroke-linejoin:round;stroke-miterlimit:2;">
    <g transform="matrix(1,0,0,1,-289.559,0)">
        <path d="M340.547,560.575C436.787,616.615 686.403,625.641 733.812,625.641C773.496,625.641 953.735,621.877 1067.5,586.905C1122.87,569.883 1162.5,545.467 1162.5,510.492C1162.5,491.801 1162.34,430.827 1107.3,434.853C1067.53,437.74 1006.4,444.285 939.21,450.043C936.256,450.296 933.392,451.249 930.883,452.829C925.246,456.432 921.523,462.549 918.826,468.436C913.772,479.492 911.38,492.713 911.038,504.832C910.962,508.403 911.19,512.012 910.924,515.583C910.544,520.293 909.252,525.193 905.834,528.463C902.452,531.767 896.602,532.792 892.992,529.716C889.374,526.628 889.628,521.571 889.758,516.493C889.894,511.201 889.895,505.885 885.238,502.752C881.542,500.264 876.558,500.828 873.019,503.533C866.119,508.808 865.522,517.675 865.982,525.764C866.514,535.111 868.147,544.417 870.768,553.421C873.39,562.311 877.035,571.2 876.656,580.471C876.276,589.74 870.274,599.693 861.043,600.605C854.622,601.251 848.354,597.224 844.935,591.753C841.515,586.321 840.566,579.635 840.718,573.176C841.098,557.524 847.366,542.709 850.747,527.436C854.09,512.125 852.951,495.296 843.452,482.836C843.395,482.76 843.337,482.685 843.279,482.611C831.318,467.135 812.352,458.753 792.803,459.427C782.008,459.8 771.328,460.071 760.828,460.227C751.24,460.367 741.8,460.411 732.559,460.347C597.579,459.395 477.15,449.441 357.86,434.853C339.132,432.556 326.758,438.475 318.58,448.009C305.087,463.744 303.028,489.327 302.716,504.08C302.663,506.555 302.66,508.724 302.66,510.493C302.66,530.365 317.02,546.875 340.548,560.575M732.574,0C583.516,0 289.559,24.773 289.559,216.659C289.559,247.288 291.123,290.864 346.446,299.365C444.424,314.42 575.571,331.983 732.576,331.983C889.582,331.983 1013.56,319.837 1118.71,299.365C1173.65,288.668 1175.59,247.288 1175.59,216.659C1175.59,24.773 881.635,0 732.574,0" style="fill:rgb(251,180,101);fill-rule:nonzero;"/>
    </g>
</svg>
