<svg xmlns="http://www.w3.org/2000/svg" xmlns:xlink="http://www.w3.org/1999/xlink" width="1465.147" height="1266.336" viewBox="0 0 1098.86 949.752"><clipPath id="a"><path transform="matrix(1 0 0 -1 0 949.752)" d="M0 949.752h1098.861V0H0z"/></clipPath><g clip-path="url(#a)"><symbol id="b"><path d="M.147.356.172.329C.204.296.235.255.215.222.181.166.051.221.01.261V.065C.114.023.251 0 .34.046a.199.199 0 0 1 .108.159C.458.299.43.364.325.46L.3.483C.26.518.227.554.245.588.274.644.385.59.422.549v.19C.324.782.203.806.114.76A.178.178 0 0 1 .012.623C0 .527.048.458.147.356z"/></symbol><symbol id="c"><path d="M.059.732 0 0h.19l.011.516L.29 0h.154l.078.516L.543 0h.19L.676.732H.431L.365.337.304.732H.059z"/></symbol><symbol id="d"><path d="M.175.732 0 0h.202l.02.101h.116L.356 0h.206L.409.732H.175m.073-.48.038.284.036-.284H.248z"/></symbol><symbol id="e"><path d="M0 .732V0h.212v.284h.081V0h.212v.732H.293V.467H.212v.265H0z"/></symbol><symbol id="f"><path d="M.098.368 0 0h.132l.16.368H.098z"/></symbol><symbol id="g"><path d="M0 0h.191c.213 0 .311.124.324.337.014.25-.113.395-.324.395H0V0m.212.177V.54C.249.54.268.536.285.499a.516.516 0 0 0 0-.281C.267.183.249.177.212.177z"/></symbol><symbol id="h"><path d="M0 0z"/></symbol><symbol id="i"><path d="M.007.749v-.46C.007.217 0 0 .261 0c.267 0 .262.251.262.315v.434H.311V.322C.311.27.316.197.266.197c-.047 0-.047.072-.047.12v.432H.007z"/></symbol><symbol id="j"><path d="M0 .732V0h.212v.239c.06 0 .283-.008.283.234 0 .255-.213.259-.29.259H0M.212.411v.16c.029 0 .057.001.076-.03A.127.127 0 0 0 .293.447C.276.411.246.411.212.411z"/></symbol><use xlink:href="#b" transform="matrix(213.4584 0 0 -213.4584 6.404 792.369)"/><use xlink:href="#c" transform="matrix(213.4584 0 0 -213.4584 112.28 784.47)"/><use xlink:href="#d" transform="matrix(213.4584 0 0 -213.4584 278.136 784.47)"/><use xlink:href="#b" transform="matrix(213.4584 0 0 -213.4584 401.088 792.369)"/><use xlink:href="#e" transform="matrix(213.4584 0 0 -213.4584 510.379 784.47)"/><use xlink:href="#f" transform="matrix(213.4584 0 0 -213.4584 630.343 706.772)"/><use xlink:href="#g" transform="matrix(213.4584 0 0 -213.4584 707.401 784.47)"/><use xlink:href="#h" transform="matrix(213.4584 0 0 -213.4584 817.973 784.47)"/><use xlink:href="#i" transform="matrix(213.4584 0 0 -213.4584 865.147 788.1)"/><use xlink:href="#j" transform="matrix(213.4584 0 0 -213.4584 993.222 784.47)"/><symbol id="k"><path d="M.251.297A.364.364 0 0 0 .07.374a.185.185 0 0 0-.062.142c0 .06.022.11.067.149.045.04.101.059.17.059.06 0 .115-.016.164-.047A.265.265 0 0 0 .514.551L.389.505a.153.153 0 0 1-.057.069A.141.141 0 0 1 .249.6.123.123 0 0 1 .172.577.072.072 0 0 1 .143.518c0-.023.01-.041.031-.055A.279.279 0 0 1 .275.429.36.36 0 0 0 .456.348.183.183 0 0 0 .521.206c0-.06-.023-.11-.07-.148A.266.266 0 0 0 .274 0a.317.317 0 0 0-.166.045A.264.264 0 0 0 0 .168l.126.06A.166.166 0 0 1 .184.151.15.15 0 0 1 .271.124c.033 0 .06.008.082.024a.072.072 0 0 1 .032.06c0 .023-.011.041-.033.055a.264.264 0 0 1-.101.034z"/></symbol><symbol id="l"><path d="M.13 0H0v.7h.13V0z"/></symbol><symbol id="m"><path d="M0 0v.7h.151l.22-.419.22.419h.151V0H.613v.489L.414.107H.329l-.2.382V0H0z"/></symbol><symbol id="n"><path d="M.293.572H.13V.34h.163C.33.34.362.351.387.374c.025.023.038.05.038.084 0 .033-.013.06-.038.081a.136.136 0 0 1-.094.033m0-.36H.13V0H0v.7h.303a.25.25 0 0 0 .18-.069.23.23 0 0 0 .072-.173.23.23 0 0 0-.077-.175.261.261 0 0 0-.185-.071z"/></symbol><symbol id="o"><path d="M.13.128h.36V0H0v.7h.13V.128z"/></symbol><symbol id="p"><path d="M.261 0h.13v.227L.632.7H.48L.326.384.153.7H0L.261.227V0z"/></symbol><symbol id="q"><path d="M0 0z"/></symbol><symbol id="r"><path d="M.169.283h.392V.161H.169v.122M.149 0H0l.278.7h.17l.28-.7H.579L.365.566.149 0z"/></symbol><symbol id="s"><path d="M0 0v.7h.13V.415h.327V.7h.13V0h-.13v.287H.13V0H0z"/></symbol><symbol id="t"><path d="M0 0v.7h.15L.457.206V.7h.13V0h-.15L.13.497V0H0z"/></symbol><symbol id="u"><path d="M.197.54A.232.232 0 0 1 .13.369c0-.07.022-.127.067-.172A.225.225 0 0 1 .361.13a.23.23 0 0 1 .144.047C.545.209.571.25.58.301H.323v.117h.396A.485.485 0 0 0 .722.355.35.35 0 0 0 .361 0a.366.366 0 0 0-.255.103.353.353 0 0 0-.078.117.397.397 0 0 0 .078.415.354.354 0 0 0 .115.075c.044.019.09.028.14.028a.352.352 0 0 0 .322-.2L.567.478a.22.22 0 0 1-.084.095.223.223 0 0 1-.122.035A.224.224 0 0 1 .197.54z"/></symbol><symbol id="v"><path d="M.341.572H.13V.413h.215c.023 0 .042.008.057.025a.087.087 0 0 1 .023.061.064.064 0 0 1-.024.052.086.086 0 0 1-.06.021M.345.289H.13V.128h.221c.024 0 .044.007.06.021a.07.07 0 0 1 .024.054.08.08 0 0 1-.026.061.089.089 0 0 1-.064.025M.363 0H0v.7h.353A.205.205 0 0 0 .497.648a.165.165 0 0 0 .058-.13.197.197 0 0 0-.024-.096.17.17 0 0 0-.066-.068.185.185 0 0 0 .1-.168.175.175 0 0 0-.058-.133A.205.205 0 0 0 .363 0z"/></symbol><symbol id="w"><path d="M.5.082A.286.286 0 0 0 .292 0 .282.282 0 0 0 0 .291v.42h.13v-.41C.13.248.145.206.175.175A.16.16 0 0 1 .292.13c.047 0 .086.015.116.045a.17.17 0 0 1 .046.126v.41h.13v-.42A.282.282 0 0 0 .5.082z"/></symbol><symbol id="x"><path d="M.299.572H.13V.373h.169c.034 0 .062.01.085.029a.09.09 0 0 1 .035.072.087.087 0 0 1-.034.07.13.13 0 0 1-.086.028M.373.26.555 0h-.15L.231.247H.13V0H0v.7h.309A.252.252 0 0 0 .486.637.214.214 0 0 0 .555.471.208.208 0 0 0 .373.26z"/></symbol><symbol id="y"><path d="M.13.415h.336V.287H.13V.128h.36V0H0v.7h.49V.572H.13V.415z"/></symbol><use xlink:href="#k" transform="matrix(61.7813 0 0 -61.7813 128.674 929.797)"/><use xlink:href="#l" transform="matrix(61.7813 0 0 -61.7813 166.176 929.117)"/><use xlink:href="#m" transform="matrix(61.7813 0 0 -61.7813 180.385 929.117)"/><use xlink:href="#n" transform="matrix(61.7813 0 0 -61.7813 232.405 929.117)"/><use xlink:href="#o" transform="matrix(61.7813 0 0 -61.7813 271.76 929.117)"/><use xlink:href="#p" transform="matrix(61.7813 0 0 -61.7813 295.793 929.117)"/><use xlink:href="#q" transform="matrix(61.7813 0 0 -61.7813 336.383 929.117)"/><use xlink:href="#k" transform="matrix(61.7813 0 0 -61.7813 355.103 929.797)"/><use xlink:href="#m" transform="matrix(61.7813 0 0 -61.7813 392.233 929.117)"/><use xlink:href="#r" transform="matrix(61.7813 0 0 -61.7813 442.77 929.117)"/><use xlink:href="#k" transform="matrix(61.7813 0 0 -61.7813 489.483 929.797)"/><use xlink:href="#s" transform="matrix(61.7813 0 0 -61.7813 526.985 929.117)"/><use xlink:href="#l" transform="matrix(61.7813 0 0 -61.7813 569.8 929.117)"/><use xlink:href="#t" transform="matrix(61.7813 0 0 -61.7813 584.38 929.117)"/><use xlink:href="#u" transform="matrix(61.7813 0 0 -61.7813 625.958 930.23)"/><use xlink:href="#q" transform="matrix(61.7813 0 0 -61.7813 672.603 929.117)"/><use xlink:href="#v" transform="matrix(61.7813 0 0 -61.7813 692.559 929.117)"/><use xlink:href="#w" transform="matrix(61.7813 0 0 -61.7813 732.964 929.797)"/><use xlink:href="#x" transform="matrix(61.7813 0 0 -61.7813 775.593 929.117)"/><use xlink:href="#u" transform="matrix(61.7813 0 0 -61.7813 813.959 930.23)"/><use xlink:href="#y" transform="matrix(61.7813 0 0 -61.7813 863.878 929.117)"/><use xlink:href="#x" transform="matrix(61.7813 0 0 -61.7813 899.65 929.117)"/><use xlink:href="#k" transform="matrix(61.7813 0 0 -61.7813 938.016 929.797)"/><path d="M255.41 420.431c72.18 42.03 259.392 48.8 294.949 48.8 29.763 0 164.942-2.823 250.264-29.052 41.53-12.767 71.249-31.079 71.249-57.31 0-14.018-.114-59.749-41.4-56.729-29.823 2.165-75.675 7.074-126.065 11.392-2.215.19-4.363.905-6.245 2.09-4.228 2.702-7.02 7.29-9.043 11.705-3.79 8.292-5.584 18.208-5.841 27.297-.057 2.678.114 5.385-.085 8.063-.285 3.533-1.254 7.208-3.818 9.66-2.536 2.478-6.924 3.247-9.631.94-2.714-2.316-2.523-6.109-2.426-9.917.102-3.969.103-7.956-3.39-10.306-2.772-1.866-6.51-1.443-9.164.586-5.175 3.956-5.623 10.606-5.278 16.673.399 7.01 1.624 13.99 3.59 20.743 1.966 6.667 4.7 13.334 4.416 20.287-.285 6.952-4.787 14.417-11.71 15.101-4.816.484-9.517-2.536-12.081-6.639-2.565-4.074-3.277-9.089-3.163-13.933.285-11.739 4.986-22.85 7.522-34.305 2.507-11.483 1.653-24.105-5.471-33.45a9.428 9.428 0 0 0-.13-.169c-8.971-11.607-23.195-17.893-37.857-17.388-8.096.28-16.106.483-23.981.6-7.191.105-14.271.138-21.202.09-101.235-.714-191.557-8.179-281.024-19.12-14.046-1.723-23.327 2.716-29.46 9.867-10.12 11.801-11.664 30.988-11.898 42.053-.04 1.856-.042 3.483-.042 4.81 0 14.904 10.77 27.286 28.416 37.561M549.43 0C437.637 0 217.169 18.58 217.169 162.494c0 22.972 1.173 55.654 42.665 62.03 73.484 11.291 171.844 24.463 289.598 24.463 117.754 0 210.736-9.109 289.598-24.463 41.205-8.023 42.665-39.058 42.665-62.03C881.694 18.58 661.226 0 549.43 0" fill="#fbb465"/></g></svg>