<?xml version="1.0" encoding="UTF-8"?>
<!DOCTYPE svg PUBLIC "-//W3C//DTD SVG 1.1//EN" "http://www.w3.org/Graphics/SVG/1.1/DTD/svg11.dtd">
<svg xmlns="http://www.w3.org/2000/svg" version="1.1" width="512px" height="512px" style="shape-rendering:geometricPrecision; text-rendering:geometricPrecision; image-rendering:optimizeQuality; fill-rule:evenodd; clip-rule:evenodd" xmlns:xlink="http://www.w3.org/1999/xlink">
<g><path style="opacity:0.982" fill="#ffb947" d="M 119.5,-0.5 C 127.833,-0.5 136.167,-0.5 144.5,-0.5C 147.544,1.58639 149.044,4.58639 149,8.5C 152.747,36.1448 156.247,63.8115 159.5,91.5C 155.702,92.4834 151.702,92.8168 147.5,92.5C 137.167,92.5 126.833,92.5 116.5,92.5C 112.069,92.7693 107.735,92.436 103.5,91.5C 107.58,61.8632 111.747,32.1965 116,2.5C 117.145,1.36362 118.312,0.363622 119.5,-0.5 Z"/></g>
<g><path style="opacity:0.983" fill="#ff3a2f" d="M 366.5,-0.5 C 374.833,-0.5 383.167,-0.5 391.5,-0.5C 394.355,0.873632 395.855,3.20697 396,6.5C 399.829,34.4692 403.329,62.4692 406.5,90.5C 402.971,92.4228 398.971,93.0894 394.5,92.5C 384.167,92.5 373.833,92.5 363.5,92.5C 359.298,92.8168 355.298,92.4834 351.5,91.5C 354.841,62.1084 358.674,32.775 363,3.5C 363.69,1.64977 364.856,0.316435 366.5,-0.5 Z"/></g>
<g><path style="opacity:0.993" fill="#ff7a3c" d="M 85.5,91.5 C 91.5,91.5 97.5,91.5 103.5,91.5C 107.735,92.436 112.069,92.7693 116.5,92.5C 116.5,112.833 116.5,133.167 116.5,153.5C 106.167,153.5 95.8333,153.5 85.5,153.5C 85.5,132.833 85.5,112.167 85.5,91.5 Z"/></g>
<g><path style="opacity:0.993" fill="#ff793b" d="M 159.5,91.5 C 165.833,91.5 172.167,91.5 178.5,91.5C 178.5,112.167 178.5,132.833 178.5,153.5C 168.167,153.5 157.833,153.5 147.5,153.5C 147.5,133.167 147.5,112.833 147.5,92.5C 151.702,92.8168 155.702,92.4834 159.5,91.5 Z"/></g>
<g><path style="opacity:0.983" fill="#ff5a35" d="M 178.5,91.5 C 194.522,92.6889 204.689,101.022 209,116.5C 209.5,128.829 209.667,141.162 209.5,153.5C 202.018,154.492 194.352,154.825 186.5,154.5C 184.833,154.5 183.167,154.5 181.5,154.5C 180.791,153.596 179.791,153.263 178.5,153.5C 178.5,132.833 178.5,112.167 178.5,91.5 Z"/></g>
<g><path style="opacity:0.982" fill="#ff7a3b" d="M 332.5,91.5 C 332.5,112.167 332.5,132.833 332.5,153.5C 322.167,153.5 311.833,153.5 301.5,153.5C 301.073,139.774 301.573,126.107 303,112.5C 308.544,99.4776 318.378,92.4776 332.5,91.5 Z"/></g>
<g><path style="opacity:0.993" fill="#ff5934" d="M 406.5,90.5 C 412.744,91.4578 419.077,91.7912 425.5,91.5C 425.5,112.5 425.5,133.5 425.5,154.5C 383.997,154.832 342.663,154.499 301.5,153.5C 311.833,153.5 322.167,153.5 332.5,153.5C 332.5,132.833 332.5,112.167 332.5,91.5C 338.833,91.5 345.167,91.5 351.5,91.5C 355.298,92.4834 359.298,92.8168 363.5,92.5C 363.5,112.833 363.5,133.167 363.5,153.5C 373.833,153.5 384.167,153.5 394.5,153.5C 394.5,133.167 394.5,112.833 394.5,92.5C 398.971,93.0894 402.971,92.4228 406.5,90.5 Z"/></g>
<g><path style="opacity:1" fill="#ff9a42" d="M 85.5,91.5 C 85.5,112.167 85.5,132.833 85.5,153.5C 95.8333,153.5 106.167,153.5 116.5,153.5C 116.5,133.167 116.5,112.833 116.5,92.5C 126.833,92.5 137.167,92.5 147.5,92.5C 147.5,112.833 147.5,133.167 147.5,153.5C 157.833,153.5 168.167,153.5 178.5,153.5C 179.791,153.263 180.791,153.596 181.5,154.5C 138.997,154.832 96.6634,154.499 54.5,153.5C 54.3334,140.829 54.5001,128.162 55,115.5C 59.7252,100.61 69.8918,92.6103 85.5,91.5 Z"/></g>
<g><path style="opacity:1" fill="#ff793b" d="M 363.5,92.5 C 373.833,92.5 384.167,92.5 394.5,92.5C 394.5,112.833 394.5,133.167 394.5,153.5C 384.167,153.5 373.833,153.5 363.5,153.5C 363.5,133.167 363.5,112.833 363.5,92.5 Z"/></g>
<g><path style="opacity:0.998" fill="#ffb947" d="M 54.5,153.5 C 96.6634,154.499 138.997,154.832 181.5,154.5C 183.167,154.5 184.833,154.5 186.5,154.5C 197.981,159.153 205.481,167.486 209,179.5C 209.667,281.5 209.667,383.5 209,485.5C 205.732,498.931 197.565,507.598 184.5,511.5C 138.5,511.5 92.5,511.5 46.5,511.5C 34.7449,507.576 27.2449,499.576 24,487.5C 23.3333,384.167 23.3333,280.833 24,177.5C 28.6852,162.659 38.8519,154.659 54.5,153.5 Z"/></g>
<g><path style="opacity:0.984" fill="#ff9a42" d="M 209.5,153.5 C 225.519,154.685 235.686,163.019 240,178.5C 240.667,281.167 240.667,383.833 240,486.5C 237.19,499.139 229.69,507.473 217.5,511.5C 206.5,511.5 195.5,511.5 184.5,511.5C 197.565,507.598 205.732,498.931 209,485.5C 209.667,383.5 209.667,281.5 209,179.5C 205.481,167.486 197.981,159.153 186.5,154.5C 194.352,154.825 202.018,154.492 209.5,153.5 Z"/></g>
<g><path style="opacity:0.997" fill="#fe392e" d="M 425.5,91.5 C 441.108,92.6103 451.275,100.61 456,115.5C 456.5,128.162 456.667,140.829 456.5,153.5C 449.011,154.329 441.344,154.829 433.5,155C 445.433,158.599 452.933,166.432 456,178.5C 456.667,280.5 456.667,382.5 456,484.5C 453.001,499.331 444.168,508.331 429.5,511.5C 384.167,511.5 338.833,511.5 293.5,511.5C 281.31,507.473 273.81,499.139 271,486.5C 270.333,383.833 270.333,281.167 271,178.5C 275.314,163.019 285.481,154.685 301.5,153.5C 342.663,154.499 383.997,154.832 425.5,154.5C 425.5,133.5 425.5,112.5 425.5,91.5 Z"/></g>
<g><path style="opacity:0.992" fill="#db2116" d="M 456.5,153.5 C 472.123,154.629 482.29,162.629 487,177.5C 487.667,280.833 487.667,384.167 487,487.5C 483.755,499.576 476.255,507.576 464.5,511.5C 452.833,511.5 441.167,511.5 429.5,511.5C 444.168,508.331 453.001,499.331 456,484.5C 456.667,382.5 456.667,280.5 456,178.5C 452.933,166.432 445.433,158.599 433.5,155C 441.344,154.829 449.011,154.329 456.5,153.5 Z"/></g>
</svg>
