<?xml version="1.0" encoding="UTF-8"?>
<!DOCTYPE svg PUBLIC "-//W3C//DTD SVG 1.1//EN" "http://www.w3.org/Graphics/SVG/1.1/DTD/svg11.dtd">
<svg xmlns="http://www.w3.org/2000/svg" version="1.1" width="512px" height="512px" style="shape-rendering:geometricPrecision; text-rendering:geometricPrecision; image-rendering:optimizeQuality; fill-rule:evenodd; clip-rule:evenodd" xmlns:xlink="http://www.w3.org/1999/xlink">
<g><path style="opacity:1" fill="#f44538" d="M 364.5,231.5 C 364.586,232.496 364.252,233.329 363.5,234C 355.919,238.04 348.419,242.207 341,246.5C 340.617,245.944 340.117,245.611 339.5,245.5C 336.96,197.578 315.293,161.078 274.5,136C 267.276,137.298 259.943,138.298 252.5,139C 252.043,139.414 251.709,139.914 251.5,140.5C 257.339,152.518 261.005,165.184 262.5,178.5C 260.465,188.367 254.465,192.534 244.5,191C 241.348,187.846 237.681,185.513 233.5,184C 224.205,181.815 214.872,179.815 205.5,178C 200.337,176.168 195.504,173.668 191,170.5C 186.726,174.774 181.893,178.274 176.5,181C 165.976,184.212 155.643,187.878 145.5,192C 139.549,195.95 134.216,200.617 129.5,206C 118.311,209.471 111.645,205.471 109.5,194C 110.892,178.428 115.225,163.761 122.5,150C 117.833,149.667 113.167,149.333 108.5,149C 102.778,147.485 97.1113,146.151 91.5,145C 42.4577,186.333 28.9577,237.167 51,297.5C 68.9976,333.335 96.831,358.001 134.5,371.5C 135.222,371.918 135.722,372.584 136,373.5C 136.775,382.215 136.608,390.881 135.5,399.5C 74.6837,381.184 35.5171,341.517 18,280.5C 6.79129,219.956 23.958,169.289 69.5,128.5C 55.2667,113.633 49.1,95.9661 51,75.5C 58.3333,67.5 65.6667,67.5 73,75.5C 74.2898,81.4603 77.9565,84.4603 84,84.5C 94.703,82.0686 105.203,78.9019 115.5,75C 124.688,72.629 134.021,71.2957 143.5,71C 138.685,63.871 134.518,56.371 131,48.5C 125.14,15.3463 137.973,4.17965 169.5,15C 177.394,21.8949 184.227,29.7282 190,38.5C 196.087,49.0065 201.921,59.6731 207.5,70.5C 221.829,70.0335 236.163,70.5335 250.5,72C 254.5,73 258.5,74 262.5,75C 269.977,78.338 277.31,81.838 284.5,85.5C 287.691,84.8251 290.691,83.6585 293.5,82C 296.887,78.6126 300.221,75.2792 303.5,72C 318.336,68.5002 324.503,74.3335 322,89.5C 317.208,101.624 310.042,112.124 300.5,121C 337.187,148.866 358.52,185.699 364.5,231.5 Z M 155.5,38.5 C 161.159,42.7948 165.659,48.1281 169,54.5C 176.627,68.2535 184.127,82.0868 191.5,96C 196.135,99.5482 200.968,100.048 206,97.5C 206.333,97.8333 206.667,98.1667 207,98.5C 223.759,93.9379 240.259,94.7712 256.5,101C 260.666,103.917 264.999,106.584 269.5,109C 254.214,114.027 238.714,114.86 223,111.5C 211.273,112.901 207.273,119.235 211,130.5C 214.298,134.8 217.965,138.8 222,142.5C 225.309,146.787 227.809,151.453 229.5,156.5C 218.595,155.702 209.095,151.702 201,144.5C 196.33,131.833 188.33,129.167 177,136.5C 174.918,140.152 173.918,144.152 174,148.5C 171.569,153.979 167.403,157.479 161.5,159C 155.907,160.983 150.241,162.316 144.5,163C 148.556,155.612 153.389,148.778 159,142.5C 163.995,130.82 160.328,123.82 148,121.5C 135.909,124.294 123.742,124.794 111.5,123C 102.48,120.992 94.8131,116.658 88.5,110C 104.5,105.667 120.5,101.333 136.5,97C 142.833,96.3333 149.167,96.3333 155.5,97C 159.314,106.118 163.314,115.118 167.5,124C 174.267,128.891 180.6,128.391 186.5,122.5C 188.387,120.008 189.387,117.175 189.5,114C 184.587,97.6745 178.42,81.8412 171,66.5C 165.555,57.2733 160.389,47.9399 155.5,38.5 Z"/></g>
<g><path style="opacity:1" fill="#feb750" d="M 364.5,231.5 C 436.864,233.029 481.364,269.029 498,339.5C 499.085,347.182 500.252,354.848 501.5,362.5C 501.647,403.675 501.48,445.009 501,486.5C 500.276,492.224 497.109,495.724 491.5,497C 375.833,497.667 260.167,497.667 144.5,497C 140.778,495.9 137.944,493.734 136,490.5C 135.333,475.167 135.333,459.833 136,444.5C 137.046,442.91 138.213,441.41 139.5,440C 143.575,438.917 147.575,437.584 151.5,436C 157.561,431.44 157.894,426.607 152.5,421.5C 148.882,419.091 144.882,417.591 140.5,417C 139,415.5 137.5,414 136,412.5C 135.501,408.179 135.334,403.846 135.5,399.5C 136.608,390.881 136.775,382.215 136,373.5C 135.722,372.584 135.222,371.918 134.5,371.5C 133.996,365.462 134.996,359.795 137.5,354.5C 141.026,353.31 144.026,351.31 146.5,348.5C 147.167,348.5 147.5,348.167 147.5,347.5C 186.648,326.829 225.648,305.996 264.5,285C 271.009,283.241 276.509,284.741 281,289.5C 286.359,299.176 293.859,301.343 303.5,296C 308.087,291.772 309.587,286.606 308,280.5C 304.716,274.435 304.716,268.435 308,262.5C 318.368,256.642 328.868,250.975 339.5,245.5C 340.117,245.611 340.617,245.944 341,246.5C 348.419,242.207 355.919,238.04 363.5,234C 364.252,233.329 364.586,232.496 364.5,231.5 Z M 473.5,350.5 C 381.665,350.833 289.998,350.499 198.5,349.5C 221.103,337.949 243.603,326.282 266,314.5C 283.194,326.878 301.027,327.712 319.5,317C 331.528,306.577 336.195,293.577 333.5,278C 347.146,270.011 361.146,262.844 375.5,256.5C 431.271,263.602 463.937,294.935 473.5,350.5 Z M 475.5,375.5 C 475.5,407.5 475.5,439.5 475.5,471.5C 447.5,471.5 419.5,471.5 391.5,471.5C 391.167,471.5 390.833,471.5 390.5,471.5C 313.833,471.5 237.167,471.5 160.5,471.5C 160.237,467.4 160.57,463.4 161.5,459.5C 172.139,455.013 178.639,447.013 181,435.5C 183.184,421.384 179.017,409.55 168.5,400C 167.255,399.209 165.922,398.709 164.5,398.5C 163.685,397.163 162.518,396.163 161,395.5C 160.5,388.842 160.334,382.175 160.5,375.5C 265.5,375.5 370.5,375.5 475.5,375.5 Z M 222.5,403.5 C 234.631,402.457 239.464,407.791 237,419.5C 228.704,428.11 221.704,427.11 216,416.5C 216.025,411.116 218.192,406.783 222.5,403.5 Z M 370.5,421.5 C 380.99,422.805 384.823,428.471 382,438.5C 376.928,445.184 371.095,446.017 364.5,441C 359.036,432.387 361.036,425.887 370.5,421.5 Z"/></g>
<g><path style="opacity:1" fill="#f44538" d="M 79.5,263.5 C 83.6733,285.848 95.0066,303.682 113.5,317C 122.942,323.054 132.942,328.054 143.5,332C 147.179,336.43 148.512,341.597 147.5,347.5C 146.833,347.5 146.5,347.833 146.5,348.5C 144.026,351.31 141.026,353.31 137.5,354.5C 98.8943,345.058 72.7277,321.725 59,284.5C 57.4161,279.553 56.2495,274.553 55.5,269.5C 56.3276,263.681 56.8276,257.681 57,251.5C 60.6363,245.823 65.803,243.99 72.5,246C 74.9167,247.663 76.75,249.829 78,252.5C 78.1773,256.356 78.6773,260.023 79.5,263.5 Z"/></g>
<g><path style="opacity:0.106" fill="#fb7e71" d="M 79.5,263.5 C 78.6773,260.023 78.1773,256.356 78,252.5C 76.75,249.829 74.9167,247.663 72.5,246C 65.803,243.99 60.6363,245.823 57,251.5C 56.8276,257.681 56.3276,263.681 55.5,269.5C 53.7386,262.308 54.2386,255.308 57,248.5C 63.3305,242.715 69.8305,242.381 76.5,247.5C 77.5312,248.7 78.3645,250.034 79,251.5C 79.4988,255.486 79.6655,259.486 79.5,263.5 Z"/></g>
<g><path style="opacity:0.898" fill="#ffc776" d="M 198.5,349.5 C 289.998,350.499 381.665,350.833 473.5,350.5C 381.666,351.832 289.666,351.832 197.5,350.5C 197.624,349.893 197.957,349.56 198.5,349.5 Z"/></g>
<g><path style="opacity:0.8" fill="#ffc87a" d="M 475.5,375.5 C 370.5,375.5 265.5,375.5 160.5,375.5C 160.334,382.175 160.5,388.842 161,395.5C 162.518,396.163 163.685,397.163 164.5,398.5C 162.83,398.249 161.33,397.582 160,396.5C 159.5,389.174 159.334,381.841 159.5,374.5C 265.001,374.167 370.335,374.501 475.5,375.5 Z"/></g>
<g><path style="opacity:1" fill="#ffb851" d="M 224.5,377.5 C 254.015,380.194 266.515,396.194 262,425.5C 254.27,444.621 240.103,452.787 219.5,450C 201.137,444.798 191.471,432.632 190.5,413.5C 192.693,392.645 204.026,380.645 224.5,377.5 Z M 222.5,403.5 C 218.192,406.783 216.025,411.116 216,416.5C 221.704,427.11 228.704,428.11 237,419.5C 239.464,407.791 234.631,402.457 222.5,403.5 Z"/></g>
<g><path style="opacity:1" fill="#ffb954" d="M 302.5,386.5 C 317.167,385.676 322.334,392.343 318,406.5C 312.49,412.043 306.323,412.876 299.5,409C 292.368,400.373 293.368,392.873 302.5,386.5 Z"/></g>
<g><path style="opacity:1" fill="#ffb853" d="M 428.5,391.5 C 441.937,390.432 447.437,396.432 445,409.5C 441.345,416.07 435.845,418.237 428.5,416C 425.667,414.5 423.5,412.333 422,409.5C 419.606,401.57 421.773,395.57 428.5,391.5 Z"/></g>
<g><path style="opacity:1" fill="#ffb852" d="M 367.5,396.5 C 391.862,396.539 405.529,408.539 408.5,432.5C 407.06,454.774 395.227,467.107 373,469.5C 350.299,467.799 337.799,455.632 335.5,433C 337.304,412.803 347.971,400.637 367.5,396.5 Z M 370.5,421.5 C 361.036,425.887 359.036,432.387 364.5,441C 371.095,446.017 376.928,445.184 382,438.5C 384.823,428.471 380.99,422.805 370.5,421.5 Z"/></g>
<g><path style="opacity:1" fill="#ffb956" d="M 275.5,433.5 C 287.705,433.533 292.871,439.533 291,451.5C 286.983,458.138 281.15,460.304 273.5,458C 267.333,454.155 265.166,448.655 267,441.5C 268.747,437.584 271.58,434.917 275.5,433.5 Z"/></g>
<g><path style="opacity:0.451" fill="#ffc26c" d="M 161.5,459.5 C 160.57,463.4 160.237,467.4 160.5,471.5C 237.167,471.5 313.833,471.5 390.5,471.5C 313.668,472.499 236.668,472.833 159.5,472.5C 158.903,467.706 159.57,463.373 161.5,459.5 Z"/></g>
<g><path style="opacity:0.451" fill="#ffc470" d="M 475.5,375.5 C 476.498,407.662 476.832,439.996 476.5,472.5C 447.995,472.831 419.662,472.498 391.5,471.5C 419.5,471.5 447.5,471.5 475.5,471.5C 475.5,439.5 475.5,407.5 475.5,375.5 Z"/></g>
</svg>
